<svg width="71" height="69" viewBox="0 0 71 69" fill="none" xmlns="http://www.w3.org/2000/svg">
<path d="M20.7213 35.736C20.3171 35.3331 19.8332 35.0192 19.3005 34.8144C18.7679 34.6096 18.1983 34.5184 17.6284 34.5466C17.0584 34.5749 16.5007 34.7219 15.9909 34.9784C15.4811 35.2349 15.0306 35.5951 14.6682 36.036C14.0403 36.8658 13.7385 37.897 13.8198 38.9345C13.9011 39.9719 14.3599 40.9436 15.1094 41.6655L19.5918 46.1479C20.0052 46.5735 20.2345 47.1448 20.2302 47.7381C20.2259 48.3315 19.9882 48.8993 19.5687 49.3189C19.1491 49.7384 18.5813 49.9761 17.9879 49.9804C17.3946 49.9847 16.8233 49.7554 16.3977 49.342L12.0388 44.9831C10.3863 43.3424 9.42084 41.1338 9.33876 38.8066V28.2182C9.33717 27.6011 9.20613 26.9912 8.95411 26.4279C8.70209 25.8646 8.3347 25.3604 7.87567 24.9479C7.41664 24.5355 6.87619 24.2239 6.28923 24.0333C5.70227 23.8428 5.08186 23.7775 4.4681 23.8417C3.35208 23.9973 2.33238 24.5582 1.60336 25.4175C0.874332 26.2767 0.486964 27.3741 0.515104 28.5006V39.3889C0.517619 41.89 1.40535 44.3094 3.02102 46.2185L12.9212 57.9539C13.0062 58.0474 13.1097 58.1223 13.2251 58.174C13.3405 58.2256 13.4654 58.2528 13.5918 58.2539H31.7155C31.9495 58.2539 32.174 58.161 32.3395 57.9955C32.5049 57.83 32.5979 57.6056 32.5979 57.3716V52.0774C32.6001 49.2726 31.4894 46.5816 29.5096 44.5949L20.7213 35.736ZM66.7631 23.8593C66.1493 23.7951 65.5289 23.8604 64.942 24.051C64.355 24.2415 63.8145 24.5531 63.3555 24.9656C62.8965 25.378 62.5291 25.8822 62.2771 26.4455C62.025 27.0088 61.894 27.6187 61.8924 28.2359V38.8242C61.8103 41.1515 60.8449 43.36 59.1924 45.0008L54.8335 49.3597C54.4078 49.7731 53.8366 50.0024 53.2433 49.998C52.6499 49.9937 52.0821 49.7561 51.6625 49.3365C51.243 48.9169 51.0053 48.3491 51.001 47.7558C50.9966 47.1624 51.226 46.5912 51.6394 46.1655L56.1218 41.6831C56.8713 40.9612 57.3301 39.9896 57.4114 38.9521C57.4927 37.9147 57.1908 36.8834 56.5629 36.0536C56.2006 35.6128 55.7501 35.2525 55.2403 34.9961C54.7305 34.7396 54.1728 34.5925 53.6028 34.5643C53.0329 34.536 52.4633 34.6272 51.9307 34.832C51.398 35.0369 50.9141 35.3508 50.5099 35.7536L41.6863 44.5773C39.7 46.5611 38.5828 49.2524 38.5804 52.0597V57.3539C38.5804 57.5879 38.6733 57.8124 38.8388 57.9778C39.0043 58.1433 39.2287 58.2363 39.4627 58.2363H57.5865C57.7133 58.2374 57.8388 58.2112 57.9545 58.1594C58.0702 58.1076 58.1734 58.0315 58.2571 57.9363L68.1749 46.2008C69.7994 44.3013 70.6996 41.8883 70.7161 39.3889V28.5006C70.7398 27.3771 70.3505 26.284 69.6219 25.4285C68.8933 24.573 67.876 24.0147 66.7631 23.8593V23.8593Z" fill="#BA1987"/>
<path d="M31.3447 14.6826H39.9213C40.0394 14.6851 40.1567 14.6634 40.2661 14.6188C40.3754 14.5742 40.4745 14.5077 40.5572 14.4234C40.6398 14.3391 40.7044 14.2387 40.7468 14.1285C40.7892 14.0183 40.8085 13.9005 40.8037 13.7825C40.239 5.17066 37.2742 0 35.633 0C33.9918 0 31.0271 5.17066 30.4624 13.7825C30.4575 13.9005 30.4769 14.0183 30.5193 14.1285C30.5617 14.2387 30.6262 14.3391 30.7089 14.4234C30.7916 14.5077 30.8906 14.5742 31 14.6188C31.1093 14.6634 31.2267 14.6851 31.3447 14.6826ZM19.0975 14.559H25.2211C25.4445 14.5592 25.6592 14.473 25.8204 14.3184C25.9816 14.1638 26.0767 13.9528 26.0858 13.7296C26.2492 9.89332 26.944 6.09825 28.1506 2.45297C28.2122 2.28437 28.2209 2.101 28.1755 1.92732C28.1302 1.75364 28.0329 1.59792 27.8968 1.48094C27.7606 1.36396 27.592 1.2913 27.4135 1.27264C27.235 1.25398 27.055 1.2902 26.8976 1.37649C24.6393 2.63894 22.6862 4.38252 21.1766 6.48372C19.667 8.58492 18.6379 10.9923 18.1622 13.5355C18.1405 13.6672 18.1489 13.8021 18.1869 13.9301C18.2249 14.058 18.2914 14.1757 18.3814 14.2743C18.4715 14.3728 18.5827 14.4496 18.7067 14.4989C18.8308 14.5483 18.9644 14.5688 19.0975 14.559ZM45.2332 13.7296C45.2423 13.9528 45.3374 14.1638 45.4986 14.3184C45.6598 14.473 45.8745 14.5592 46.0979 14.559H52.1862C52.3141 14.5577 52.4402 14.5292 52.5561 14.4754C52.6721 14.4215 52.7753 14.3436 52.8587 14.2467C52.9422 14.1499 53.0041 14.0363 53.0403 13.9137C53.0765 13.7911 53.0861 13.6621 53.0686 13.5355C52.5923 11.0063 51.5744 8.61009 50.0848 6.51131C48.5953 4.41253 46.6693 2.66085 44.439 1.37649C44.2813 1.28395 44.0988 1.24268 43.9166 1.25841C43.7344 1.27414 43.5616 1.34608 43.4221 1.46429C43.2826 1.58249 43.1832 1.7411 43.1378 1.91822C43.0923 2.09534 43.1031 2.28221 43.1684 2.45297C44.375 6.09825 45.0698 9.89332 45.2332 13.7296ZM44.439 32.1534C46.6728 30.869 48.6012 29.1151 50.0911 27.0128C51.581 24.9105 52.5969 22.5099 53.0686 19.9768C53.0889 19.8488 53.0814 19.7179 53.0465 19.5931C53.0116 19.4683 52.9501 19.3525 52.8663 19.2537C52.7825 19.1548 52.6784 19.0752 52.561 19.0203C52.4436 18.9654 52.3158 18.9365 52.1862 18.9356H46.0979C45.8729 18.9399 45.6581 19.03 45.4974 19.1874C45.3366 19.3449 45.2421 19.5578 45.2332 19.7826C45.0664 23.6185 44.3717 27.4131 43.1684 31.0593C43.0971 31.2309 43.0818 31.4207 43.1247 31.6016C43.1677 31.7825 43.2666 31.9452 43.4075 32.0665C43.5483 32.1878 43.7239 32.2615 43.9092 32.2771C44.0944 32.2927 44.2799 32.2494 44.439 32.1534ZM39.9213 18.8473H31.3447C31.2267 18.8448 31.1093 18.8665 31 18.9111C30.8906 18.9557 30.7916 19.0222 30.7089 19.1065C30.6262 19.1908 30.5617 19.2912 30.5193 19.4014C30.4769 19.5116 30.4575 19.6293 30.4624 19.7473C31.0271 28.3769 33.9918 33.5299 35.633 33.5299C37.2742 33.5299 40.239 28.3769 40.8037 19.7473C40.8085 19.6293 40.7892 19.5116 40.7468 19.4014C40.7044 19.2912 40.6398 19.1908 40.5572 19.1065C40.4745 19.0222 40.3754 18.9557 40.2661 18.9111C40.1567 18.8665 40.0394 18.8448 39.9213 18.8473ZM57.1628 63.1421H39.039C38.8049 63.1421 38.5805 63.235 38.415 63.4005C38.2495 63.566 38.1566 63.7904 38.1566 64.0244V67.5539C38.1611 67.7865 38.2555 68.0083 38.42 68.1728C38.5845 68.3373 38.8064 68.4317 39.039 68.4363H57.1628C57.3968 68.4363 57.6212 68.3433 57.7867 68.1778C57.9521 68.0123 58.0451 67.7879 58.0451 67.5539V64.0244C58.0451 63.7904 57.9521 63.566 57.7867 63.4005C57.6212 63.235 57.3968 63.1421 57.1628 63.1421ZM26.8447 32.1534C27.0005 32.2369 27.1779 32.2716 27.3537 32.253C27.5295 32.2345 27.6957 32.1636 27.8307 32.0495C27.9658 31.9354 28.0634 31.7833 28.111 31.6131C28.1586 31.4428 28.1539 31.2622 28.0976 31.0946C26.8944 27.4484 26.1996 23.6538 26.0329 19.8179C26.0239 19.5931 25.9294 19.3802 25.7687 19.2227C25.608 19.0653 25.3931 18.9752 25.1682 18.9709H19.0975C18.967 18.9687 18.8376 18.9956 18.7187 19.0495C18.5998 19.1034 18.4943 19.183 18.4099 19.2826C18.3255 19.3822 18.2643 19.4993 18.2306 19.6255C18.1969 19.7516 18.1916 19.8836 18.2151 20.012C18.6814 22.5426 19.6954 24.9405 21.1861 27.0378C22.6768 29.1352 24.6081 30.8811 26.8447 32.1534ZM32.28 63.1421H14.1033C13.8693 63.1421 13.6449 63.235 13.4794 63.4005C13.3139 63.566 13.2209 63.7904 13.2209 64.0244V67.5539C13.2255 67.7865 13.3199 68.0083 13.4844 68.1728C13.6489 68.3373 13.8707 68.4317 14.1033 68.4363H32.28C32.5141 68.4363 32.7385 68.3433 32.904 68.1778C33.0694 68.0123 33.1624 67.7879 33.1624 67.5539V64.0244C33.1624 63.7904 33.0694 63.566 32.904 63.4005C32.7385 63.235 32.5141 63.1421 32.28 63.1421Z" fill="#FE5B52"/>
</svg>
