<svg width="81" height="55" viewBox="0 0 81 55" fill="none" xmlns="http://www.w3.org/2000/svg">
<path d="M79.8496 15.8965L65.1317 0.26101C65.0497 0.178307 64.9521 0.112654 64.8446 0.0678577C64.7371 0.0230612 64.6217 0 64.5053 0C64.3888 0 64.2735 0.0230612 64.1659 0.0678577C64.0584 0.112654 63.9608 0.178307 63.8788 0.26101L57.7022 6.08461C57.6195 6.16664 57.5539 6.26423 57.5091 6.37176C57.4643 6.47928 57.4412 6.59462 57.4412 6.7111C57.4412 6.82758 57.4643 6.9429 57.5091 7.05043C57.5539 7.15795 57.6195 7.25554 57.7022 7.33757L72.3495 22.9201C72.4315 23.0028 72.5291 23.0685 72.6366 23.1133C72.7442 23.1581 72.8595 23.1812 72.976 23.1812C73.0925 23.1812 73.2078 23.1581 73.3153 23.1133C73.4228 23.0685 73.5204 23.0028 73.6024 22.9201L79.779 17.0789C79.939 16.9278 80.0354 16.7214 80.0485 16.5017C80.0616 16.282 79.9905 16.0656 79.8496 15.8965V15.8965ZM74.5554 17.6613C74.1918 18.0223 73.7001 18.2249 73.1877 18.2249C72.6753 18.2249 72.1837 18.0223 71.8201 17.6613C71.5532 17.3914 71.3721 17.0486 71.2996 16.6761C71.2271 16.3035 71.2664 15.9178 71.4126 15.5676C71.5589 15.2174 71.8054 14.9182 72.1213 14.7078C72.4371 14.4974 72.8082 14.3851 73.1877 14.3851C73.5673 14.3851 73.9383 14.4974 74.2542 14.7078C74.5701 14.9182 74.8166 15.2174 74.9628 15.5676C75.109 15.9178 75.1484 16.3035 75.0759 16.6761C75.0034 17.0486 74.8223 17.3914 74.5554 17.6613V17.6613ZM15.1546 2.39633C14.9695 2.25402 14.7356 2.19082 14.5041 2.22059C14.2726 2.25036 14.0623 2.37066 13.9193 2.55515L0.18966 20.2025C0.0453861 20.3853 -0.0207374 20.6178 0.00570958 20.8492C0.0321565 21.0806 0.149028 21.2922 0.330839 21.4378L7.07211 26.732C7.25715 26.8743 7.49104 26.9375 7.72257 26.9077C7.9541 26.8779 8.1644 26.7576 8.30742 26.5731L22.0547 8.92583C22.197 8.74079 22.2602 8.5069 22.2304 8.27537C22.2006 8.04383 22.0803 7.83354 21.8958 7.69052L15.1546 2.39633ZM8.69566 20.8201C8.46182 21.1202 8.14425 21.3442 7.78312 21.4637C7.42199 21.5833 7.03351 21.5931 6.6668 21.492C6.30009 21.3908 5.97161 21.1831 5.72291 20.8953C5.4742 20.6074 5.31643 20.2523 5.26955 19.8747C5.22267 19.4972 5.28878 19.1143 5.45952 18.7743C5.63027 18.4344 5.89797 18.1527 6.2288 17.9649C6.55962 17.7771 6.9387 17.6916 7.31812 17.7192C7.69753 17.7468 8.06023 17.8863 8.36036 18.1201C8.75899 18.4364 9.01748 18.8965 9.0802 19.4015C9.14291 19.9065 9.00482 20.4159 8.69566 20.8201V20.8201Z" fill="#FE5B52"/>
<path d="M59.8022 37.9909L44.7138 26.2025L41.9608 28.7261C39.2934 31.418 35.7059 33.0005 31.9195 33.1555C31.2982 33.1607 30.6778 33.1075 30.0665 32.9967C28.5751 32.7517 27.1556 32.1821 25.9084 31.3283C24.6613 30.4745 23.6168 29.3572 22.8488 28.0555C22.2057 27.0023 21.9507 25.7575 22.128 24.5363C22.3052 23.3151 22.9034 22.1941 23.8194 21.3671L34.6724 11.5199C33.1921 10.3814 31.321 9.87587 29.4688 10.114C27.6165 10.3522 25.9341 11.3146 24.79 12.7906L14.2016 26.4672C13.7699 27.0158 13.451 27.6444 13.2632 28.3168C13.0755 28.9892 13.0225 29.692 13.1074 30.3849L13.7957 35.9438C13.8799 36.6343 14.0994 37.3014 14.4416 37.907C14.7837 38.5126 15.2419 39.0448 15.7898 39.4733L34.3724 53.8735C34.9374 54.3108 35.6457 54.5208 36.3577 54.462C37.0698 54.4032 37.734 54.0799 38.2196 53.5558L39.049 52.6382C39.3046 52.3587 39.5017 52.0308 39.6288 51.674C39.7559 51.3172 39.8104 50.9386 39.789 50.5604C39.7676 50.1822 39.6708 49.8122 39.5044 49.4719C39.3379 49.1317 39.1051 48.8282 38.8196 48.5793L41.9255 51.1911C42.4246 51.5992 43.0457 51.829 43.6902 51.844C44.4275 51.8475 45.1368 51.5625 45.6667 51.0499L46.6373 50.1322C46.9256 49.8547 47.1519 49.5195 47.3016 49.1484C47.4513 48.7774 47.5209 48.3788 47.5059 47.979C47.4909 47.5792 47.3917 47.187 47.2146 46.8282C47.0376 46.4694 46.7867 46.152 46.4785 45.8969L48.7726 47.8028C49.2687 48.2185 49.8904 48.4548 50.5374 48.4734C51.2814 48.4675 51.9949 48.1771 52.5315 47.6616L53.3786 46.8322C53.6578 46.5563 53.8773 46.2259 54.0232 45.8615C54.1692 45.4971 54.2385 45.1065 54.2269 44.7141C54.2153 44.3217 54.1231 43.936 53.9559 43.5808C53.7887 43.2256 53.5501 42.9087 53.2551 42.6498L54.7727 43.9557C55.2649 44.3802 55.8878 44.6231 56.5375 44.6439C56.9554 44.6471 57.3688 44.5568 57.7474 44.3797C58.126 44.2026 58.4602 43.9432 58.7257 43.6204L60.0493 42.0498C60.3016 41.768 60.4955 41.439 60.6198 41.0818C60.7441 40.7246 60.7962 40.3463 60.7733 39.9688C60.7503 39.5912 60.6526 39.222 60.4859 38.8825C60.3192 38.543 60.0869 38.24 59.8022 37.9909V37.9909ZM67.1788 23.8731L54.4374 10.867C53.896 10.2719 53.1675 9.87966 52.3727 9.75522L45.8785 8.96109C45.372 8.89512 44.8573 8.93984 44.3698 9.09218C43.8823 9.24452 43.4337 9.50085 43.0549 9.84346L41.5196 11.2376L26.837 24.5966C26.675 24.7226 26.5655 24.9043 26.5297 25.1063C26.4938 25.3084 26.5342 25.5167 26.6429 25.6907L26.7312 25.8319C27.1713 26.5687 27.7676 27.2002 28.4779 27.6819C29.1883 28.1636 29.9956 28.4839 30.843 28.6202C33.3842 29.0437 36.1372 27.9496 39.0313 25.426L44.4843 20.3436L61.7611 33.8791L67.0553 28.8319C67.724 28.1878 68.1119 27.3061 68.1351 26.3779C68.1582 25.4497 67.8146 24.5497 67.1788 23.8731Z" fill="#BA1987"/>
</svg>
