<svg width="69" height="63" viewBox="0 0 69 63" fill="none" xmlns="http://www.w3.org/2000/svg">
<path d="M68.5157 61.6069L44.0036 18.4416C43.7181 17.9187 43.297 17.4824 42.7847 17.1784C42.2723 16.8744 41.6876 16.714 41.0918 16.714C40.4961 16.714 39.9113 16.8744 39.3989 17.1784C38.8866 17.4824 38.4655 17.9187 38.18 18.4416L28.1563 37.2536L33.4505 46.642C33.9242 47.485 34.1065 48.4606 33.9693 49.4178C33.8321 50.375 33.383 51.2601 32.6917 51.9362L31.3152 51.742L20.7268 33.2476C20.4319 32.7298 20.0029 32.301 19.485 32.0062C18.9671 31.7114 18.3794 31.5616 17.7836 31.5724C17.1878 31.5833 16.6059 31.7544 16.099 32.0678C15.5922 32.3812 15.1791 32.8253 14.9032 33.3535L0.114757 61.5892C0.0516332 61.7156 0.0218227 61.856 0.028185 61.9972C0.0345473 62.1383 0.0768692 62.2755 0.15111 62.3957C0.22535 62.5159 0.329053 62.6151 0.452403 62.684C0.575754 62.7529 0.714663 62.7891 0.855941 62.7892H67.7039C67.8487 62.8001 67.9938 62.7729 68.1247 62.7101C68.2557 62.6473 68.3678 62.5513 68.45 62.4316C68.5322 62.3119 68.5815 62.1728 68.593 62.028C68.6046 61.8833 68.5779 61.7381 68.5157 61.6069V61.6069Z" fill="#BA1987"/>
<path d="M55.3154 6.74127C55.1787 6.58145 55.1036 6.37804 55.1036 6.16772C55.1036 5.95741 55.1787 5.75402 55.3154 5.59419L58.8449 1.44708C58.9518 1.31871 59.0201 1.16262 59.0418 0.996969C59.0635 0.831318 59.0377 0.662911 58.9675 0.511329C58.8972 0.359747 58.7854 0.231217 58.645 0.140697C58.5046 0.0501775 58.3413 0.00139433 58.1743 0H41.5682C41.3341 0 41.1097 0.0929625 40.9442 0.258438C40.7788 0.423914 40.6858 0.648347 40.6858 0.882365V11.4707C40.6858 11.7048 40.7788 11.9292 40.9442 12.0947C41.1097 12.2602 41.3341 12.3531 41.5682 12.3531H58.1743C58.3446 12.3546 58.5117 12.3068 58.6554 12.2154C58.7992 12.124 58.9134 11.993 58.9843 11.8381C59.0552 11.6832 59.0798 11.5111 59.055 11.3426C59.0303 11.1741 58.9573 11.0163 58.8449 10.8884L55.3154 6.74127Z" fill="#FE5B52"/>
</svg>
