<svg width="62" height="62" viewBox="0 0 62 62" fill="none" xmlns="http://www.w3.org/2000/svg">
<path d="M58.3595 0.0321114L50.7182 1.28507C43.3594 2.18767 36.5639 5.68554 31.5532 11.1499L22.9943 20.5206L11.3294 19.85C11.0226 19.8315 10.7164 19.8934 10.4409 20.0296C10.1654 20.1658 9.9303 20.3715 9.75877 20.6265L3.89987 29.4502C3.75598 29.6623 3.66004 29.9032 3.61869 30.1562C3.57735 30.4091 3.5916 30.668 3.66046 30.9149C3.72932 31.1618 3.85113 31.3907 4.01743 31.5858C4.18373 31.7808 4.39051 31.9373 4.62341 32.0443L12.8471 35.7326L25.5178 48.4034L29.2767 56.68C29.3824 56.9117 29.5371 57.1178 29.73 57.2842C29.9229 57.4505 30.1496 57.5731 30.3944 57.6435C30.6392 57.7139 30.8963 57.7305 31.1481 57.6921C31.4 57.6537 31.6405 57.5613 31.8532 57.4212L40.6769 51.527C40.9378 51.356 41.1487 51.119 41.2882 50.84C41.4277 50.561 41.4908 50.25 41.471 49.9387L40.6945 38.2738L50.0299 29.7502C55.54 24.7587 59.0828 17.9609 60.0183 10.5852L61.2713 2.94392C61.335 2.54708 61.3036 2.1408 61.1798 1.75843C61.056 1.37605 60.8433 1.0285 60.5591 0.744304C60.2749 0.460108 59.9273 0.247373 59.5449 0.123568C59.1626 -0.00023638 58.7563 -0.0315798 58.3595 0.0321114V0.0321114ZM44.2416 24.5089C43.5005 25.2475 42.5571 25.7499 41.5306 25.9527C40.5042 26.1555 39.4406 26.0496 38.4743 25.6483C37.508 25.2471 36.6822 24.5685 36.1013 23.6983C35.5204 22.828 35.2104 21.8052 35.2104 20.7589C35.2104 19.7126 35.5204 18.6897 36.1013 17.8195C36.6822 16.9493 37.508 16.2707 38.4743 15.8694C39.4406 15.4682 40.5042 15.3623 41.5306 15.5651C42.5571 15.7679 43.5005 16.2703 44.2416 17.0088C44.7387 17.4972 45.1344 18.0789 45.4062 18.7205C45.6779 19.3621 45.8204 20.0511 45.8253 20.7479C45.8302 21.4447 45.6975 22.1356 45.4348 22.781C45.1722 23.4264 44.7847 24.0136 44.2946 24.5089H44.2416Z" fill="#BA1987"/>
<path d="M21.0885 49.9739L11.3296 40.215C11.1976 40.0856 11.0202 40.0132 10.8354 40.0132C10.6507 40.0132 10.4733 40.0856 10.3413 40.215L8.82365 41.715C3.65519 47.0218 0.529751 53.9853 0 61.3741C7.38881 60.8443 14.3523 57.7189 19.6591 52.5504L21.1591 51.0328C21.2301 50.9616 21.285 50.8762 21.3203 50.7821C21.3555 50.6881 21.3703 50.5876 21.3636 50.4874C21.3569 50.3871 21.3289 50.2895 21.2815 50.2009C21.2341 50.1124 21.1683 50.035 21.0885 49.9739V49.9739Z" fill="#FE5B52"/>
</svg>
