<svg width="46" height="69" viewBox="0 0 46 69" fill="none" xmlns="http://www.w3.org/2000/svg">
<path d="M31.488 56.7042H14.5818C13.8189 56.7042 13.0873 57.0073 12.5478 57.5467C12.0084 58.0862 11.7053 58.8178 11.7053 59.5807V60.0219C11.7146 60.7787 12.0218 61.5013 12.5602 62.0331C13.0987 62.565 13.825 62.8632 14.5818 62.8631H17.3878V63.5514C17.3878 64.9555 17.9455 66.3021 18.9384 67.2949C19.9312 68.2878 21.2778 68.8456 22.682 68.8456H23.4055C24.8096 68.8456 26.1562 68.2878 27.1491 67.2949C28.1419 66.3021 28.6997 64.9555 28.6997 63.5514V62.8631H31.5056C32.2577 62.8585 32.9777 62.5577 33.5095 62.0258C34.0414 61.494 34.3422 60.774 34.3468 60.0219V59.616C34.3539 59.2362 34.2851 58.8587 34.1446 58.5057C34.0041 58.1527 33.7946 57.8313 33.5284 57.5602C33.2623 57.2891 32.9447 57.0738 32.5944 56.9268C32.244 56.7798 31.8679 56.7042 31.488 56.7042V56.7042Z" fill="#FE5B52"/>
<path d="M20.3701 0.16224C10.8229 1.23873 1.64631 10.38 0.463937 19.9096C0.053645 23.2619 0.4003 26.6636 1.47838 29.8642C2.55646 33.0649 4.33853 35.983 6.69343 38.404C9.30633 41.1137 10.762 44.7339 10.7523 48.4982C10.7523 49.4343 11.1242 50.332 11.7861 50.9939C12.448 51.6558 13.3457 52.0277 14.2818 52.0277H31.6997C32.6357 52.0277 33.5335 51.6558 34.1954 50.9939C34.8573 50.332 35.2291 49.4343 35.2291 48.4982C35.2058 44.7657 36.6362 41.1707 39.2174 38.4745C42.502 35.1294 44.6662 30.8466 45.411 26.218C46.1558 21.5895 45.4443 16.8439 43.3749 12.6373C41.3055 8.43069 37.9804 4.97083 33.8593 2.73602C29.7382 0.501214 25.0246 -0.398157 20.3701 0.16224V0.16224ZM20.7936 43.257C20.7936 43.842 20.5612 44.4031 20.1475 44.8168C19.7339 45.2305 19.1728 45.4629 18.5877 45.4629C18.0027 45.4629 17.4416 45.2305 17.0279 44.8168C16.6142 44.4031 16.3818 43.842 16.3818 43.257V33.7098C16.3841 32.9945 16.2452 32.2858 15.9731 31.6243C15.701 30.9628 15.301 30.3616 14.7961 29.855C14.2911 29.3484 13.6911 28.9464 13.0305 28.6722C12.3699 28.3979 11.6617 28.2568 10.9464 28.2568C10.3614 28.2568 9.80032 28.0243 9.38663 27.6107C8.97294 27.197 8.74053 26.6359 8.74053 26.0508C8.74053 25.4658 8.97294 24.9047 9.38663 24.491C9.80032 24.0773 10.3614 23.8449 10.9464 23.8449C13.5581 23.8449 16.0627 24.8824 17.9094 26.7291C19.7562 28.5758 20.7936 31.0805 20.7936 33.6921V43.257ZM35.0703 28.2568C33.6271 28.2567 32.2428 28.8288 31.2207 29.8477C30.1985 30.8665 29.622 32.249 29.6173 33.6921V43.257C29.6173 43.842 29.3849 44.4031 28.9712 44.8168C28.5575 45.2305 27.9964 45.4629 27.4114 45.4629C26.8263 45.4629 26.2653 45.2305 25.8516 44.8168C25.4379 44.4031 25.2055 43.842 25.2055 43.257V33.7098C25.2101 31.0965 26.2515 28.5919 28.101 26.7457C29.9505 24.8995 32.457 23.8626 35.0703 23.8626C35.6554 23.8626 36.2164 24.095 36.6301 24.5087C37.0438 24.9224 37.2762 25.4834 37.2762 26.0685C37.2762 26.6535 37.0438 27.2146 36.6301 27.6283C36.2164 28.042 35.6554 28.2744 35.0703 28.2744V28.2568Z" fill="#BA1987"/>
</svg>
