<svg width="148" height="50" viewBox="0 0 148 50" fill="none" xmlns="http://www.w3.org/2000/svg">
<g clip-path="url(#clip0_1275_57226)">
<path d="M135.384 0.344398H12.0676C11.6181 0.344398 11.1739 0.344398 10.7256 0.346849C10.3504 0.349301 9.97806 0.356423 9.59918 0.362417C8.77607 0.372103 7.95489 0.444517 7.14278 0.579029C6.33182 0.71647 5.54626 0.975585 4.81267 1.34761C4.07998 1.72278 3.4105 2.21028 2.82852 2.79242C2.24348 3.37292 1.75581 4.0439 1.38425 4.77956C1.01166 5.51376 0.753313 6.30052 0.618118 7.11267C0.481638 7.92379 0.408197 8.74427 0.398454 9.56673C0.387078 9.94256 0.385877 10.3196 0.379883 10.6955V39.0291C0.385877 39.4098 0.387078 39.7785 0.398454 40.1592C0.4082 40.9816 0.481641 41.8021 0.618118 42.6132C0.75294 43.4258 1.01131 44.213 1.38425 44.9475C1.75564 45.6807 2.24338 46.349 2.82852 46.9263C3.40829 47.511 4.07821 47.9988 4.81267 48.3711C5.54625 48.7442 6.33173 49.0048 7.14278 49.1444C7.95503 49.2778 8.77612 49.3503 9.59918 49.3611C9.97806 49.3694 10.3504 49.3742 10.7256 49.3742C11.1739 49.3767 11.6181 49.3767 12.0676 49.3767H135.384C135.824 49.3767 136.272 49.3767 136.713 49.3742C137.086 49.3742 137.469 49.3694 137.843 49.3611C138.664 49.3508 139.484 49.2784 140.294 49.1444C141.108 49.0038 141.896 48.7433 142.633 48.3711C143.367 47.9986 144.037 47.5108 144.616 46.9263C145.199 46.3468 145.688 45.679 146.064 44.9475C146.434 44.2125 146.69 43.4253 146.823 42.6132C146.96 41.802 147.036 40.9817 147.051 40.1592C147.055 39.7785 147.055 39.4098 147.055 39.0291C147.065 38.5838 147.065 38.1409 147.065 37.6884V12.0339C147.065 11.5849 147.065 11.1396 147.055 10.6955C147.055 10.3196 147.055 9.94256 147.051 9.56668C147.036 8.74414 146.96 7.92385 146.823 7.11262C146.69 6.30094 146.434 5.51424 146.064 4.77951C145.308 3.30496 144.108 2.10469 142.633 1.3475C141.896 0.976384 141.108 0.717338 140.294 0.578919C139.484 0.443814 138.664 0.371375 137.843 0.362245C137.469 0.356263 137.086 0.34908 136.713 0.34669C136.272 0.344238 135.824 0.344238 135.384 0.344238V0.344398Z" fill="black"/>
<path d="M10.7313 48.3041C10.3578 48.3041 9.99336 48.2993 9.62281 48.291C8.85519 48.281 8.08936 48.2142 7.33161 48.0911C6.62504 47.9694 5.94057 47.743 5.30076 47.4194C4.66683 47.0986 4.08863 46.6778 3.58831 46.1733C3.08075 45.6747 2.65819 45.0965 2.33736 44.4614C2.013 43.8223 1.78852 43.1372 1.67175 42.43C1.54564 41.6702 1.47742 40.9018 1.46765 40.1317C1.45988 39.8731 1.44971 39.0124 1.44971 39.0124V10.6955C1.44971 10.6955 1.46054 9.84801 1.46771 9.59901C1.47706 8.83004 1.54489 8.06289 1.67062 7.30421C1.78761 6.59511 2.01226 5.90804 2.3368 5.2668C2.65645 4.63221 3.07667 4.05353 3.58116 3.55318C4.0851 3.04808 4.66515 2.62515 5.30016 2.29983C5.9385 1.9773 6.62167 1.75254 7.32681 1.63307C8.08706 1.50873 8.85554 1.4415 9.62583 1.43196L10.7319 1.41699H136.706L137.826 1.43256C138.589 1.44163 139.35 1.50825 140.104 1.63186C140.816 1.75283 141.506 1.97917 142.152 2.30342C143.424 2.95904 144.459 3.99629 145.112 5.26979C145.432 5.90661 145.653 6.58807 145.768 7.29105C145.895 8.05595 145.967 8.82913 145.981 9.6044C145.985 9.95155 145.985 10.3244 145.985 10.6955C145.994 11.1552 145.994 11.5927 145.994 12.0339V37.6884C145.994 38.1337 145.994 38.5683 145.985 39.0064C145.985 39.405 145.985 39.7702 145.98 40.146C145.966 40.9074 145.896 41.6668 145.771 42.418C145.656 43.1303 145.433 43.8207 145.109 44.4651C144.785 45.0933 144.365 45.6665 143.864 46.1637C143.363 46.6709 142.784 47.0942 142.148 47.4171C141.504 47.7432 140.815 47.9704 140.104 48.0911C139.346 48.2148 138.58 48.2817 137.812 48.291C137.453 48.2993 137.077 48.3041 136.712 48.3041L135.384 48.3066L10.7313 48.3041Z" fill="white"/>
<path d="M31.021 24.7261C31.0347 23.6622 31.3173 22.619 31.8425 21.6936C32.3677 20.7682 33.1185 19.9907 34.0249 19.4334C33.4491 18.611 32.6894 17.9342 31.8063 17.4568C30.9231 16.9794 29.9408 16.7144 28.9374 16.683C26.7968 16.4583 24.7216 17.9639 23.6308 17.9639C22.5189 17.9639 20.8395 16.7053 19.031 16.7425C17.8613 16.7803 16.7212 17.1205 15.722 17.7299C14.7228 18.3393 13.8985 19.1971 13.3293 20.2198C10.8641 24.488 12.703 30.761 15.0645 34.2111C16.246 35.9006 17.6269 37.7877 19.4337 37.7208C21.2018 37.6475 21.8622 36.5933 23.9964 36.5933C26.1109 36.5933 26.7304 37.7208 28.5739 37.6783C30.4712 37.6475 31.6665 35.9813 32.8066 34.2759C33.6556 33.0721 34.3088 31.7416 34.7422 30.3338C33.6399 29.8676 32.6993 29.0873 32.0376 28.0901C31.3758 27.0928 31.0223 25.9229 31.021 24.7261Z" fill="black"/>
<path d="M27.5388 14.4134C28.5733 13.1716 29.0829 11.5754 28.9595 9.96387C27.3791 10.1299 25.9192 10.8852 24.8708 12.0794C24.3582 12.6628 23.9655 13.3415 23.7154 14.0767C23.4652 14.8119 23.3624 15.5892 23.4129 16.3642C24.2034 16.3723 24.9854 16.201 25.7001 15.8631C26.4148 15.5252 27.0434 15.0295 27.5388 14.4134V14.4134Z" fill="black"/>
<path d="M52.2338 33.6121H46.4316L45.0382 37.7265H42.5806L48.0763 22.5044H50.6297L56.1255 37.7265H53.626L52.2338 33.6121ZM47.0325 31.7135H51.6317L49.3644 25.0362H49.301L47.0325 31.7135Z" fill="black"/>
<path d="M67.9946 32.1781C67.9946 35.6269 66.1487 37.8426 63.3631 37.8426C62.6575 37.8796 61.9557 37.717 61.3382 37.3736C60.7206 37.0302 60.2123 36.5199 59.8713 35.901H59.8186V41.3979H57.5405V26.6284H59.7455V28.4743H59.7874C60.1441 27.8584 60.6611 27.3507 61.2833 27.0052C61.9056 26.6597 62.6098 26.4894 63.3212 26.5123C66.138 26.5123 67.9946 28.7389 67.9946 32.1781ZM65.6532 32.1781C65.6532 29.9312 64.492 28.454 62.7203 28.454C60.9798 28.454 59.809 29.9623 59.809 32.1781C59.809 34.4142 60.9798 35.9118 62.7203 35.9118C64.492 35.9118 65.6531 34.4453 65.6531 32.1781H65.6532Z" fill="black"/>
<path d="M80.2101 32.1781C80.2101 35.6269 78.3636 37.8426 75.578 37.8426C74.8723 37.8796 74.1706 37.717 73.553 37.3736C72.9355 37.0302 72.4271 36.5199 72.0861 35.901H72.0334V41.3979H69.7554V26.6284H71.9604V28.4743H72.0023C72.3589 27.8584 72.8759 27.3507 73.4982 27.0052C74.1204 26.6597 74.8247 26.4894 75.536 26.5123C78.3528 26.5123 80.2101 28.7389 80.2101 32.1781ZM77.868 32.1781C77.868 29.9312 76.7068 28.454 74.9352 28.454C73.1946 28.454 72.0239 29.9623 72.0239 32.1781C72.0239 34.4142 73.1946 35.9118 74.9352 35.9118C76.7068 35.9118 77.868 34.4453 77.868 32.1781V32.1781Z" fill="black"/>
<path d="M88.2822 33.4856C88.451 34.9951 89.9174 35.9863 91.9213 35.9863C93.8414 35.9863 95.2228 34.9951 95.2228 33.634C95.2228 32.4525 94.3896 31.745 92.4169 31.2602L90.4441 30.7849C87.6489 30.1098 86.3513 28.8026 86.3513 26.6814C86.3513 24.055 88.6401 22.251 91.889 22.251C95.1067 22.251 97.3117 24.055 97.3859 26.6814H95.0863C94.9487 25.1623 93.6929 24.2453 91.8578 24.2453C90.0227 24.2453 88.767 25.1731 88.767 26.5234C88.767 27.5995 89.569 28.2328 91.531 28.7176L93.2081 29.1293C96.3313 29.8679 97.6277 31.1225 97.6277 33.349C97.6277 36.1969 95.3605 37.9805 91.7524 37.9805C88.3767 37.9805 86.0974 36.2388 85.9502 33.4855L88.2822 33.4856Z" fill="black"/>
<path d="M102.547 24.0029V26.6293H104.657V28.4333H102.547V34.5516C102.547 35.5021 102.969 35.945 103.897 35.945C104.147 35.9406 104.397 35.923 104.646 35.8923V37.6855C104.229 37.7634 103.805 37.7987 103.381 37.7908C101.134 37.7908 100.258 36.9469 100.258 34.7945V28.4333H98.644V26.6293H100.258V24.0029H102.547Z" fill="black"/>
<path d="M105.878 32.1793C105.878 28.6874 107.934 26.4932 111.141 26.4932C114.359 26.4932 116.406 28.6874 116.406 32.1793C116.406 35.6807 114.37 37.8654 111.141 37.8654C107.914 37.8654 105.878 35.6807 105.878 32.1793ZM114.085 32.1793C114.085 29.7839 112.987 28.3702 111.141 28.3702C109.296 28.3702 108.198 29.7947 108.198 32.1793C108.198 34.5842 109.296 35.9872 111.141 35.9872C112.987 35.9872 114.085 34.5842 114.085 32.1793H114.085Z" fill="black"/>
<path d="M118.284 26.6283H120.457V28.5173H120.51C120.657 27.9273 121.002 27.4059 121.488 27.0408C121.974 26.6756 122.572 26.489 123.179 26.5122C123.442 26.5113 123.703 26.5398 123.96 26.5972V28.728C123.628 28.6267 123.282 28.5802 122.936 28.5903C122.605 28.5769 122.275 28.6352 121.969 28.7614C121.663 28.8875 121.387 29.0784 121.162 29.321C120.936 29.5635 120.766 29.852 120.662 30.1667C120.559 30.4813 120.525 30.8146 120.562 31.1437V37.7264H118.284L118.284 26.6283Z" fill="black"/>
<path d="M134.463 34.4681C134.156 36.4828 132.194 37.8654 129.684 37.8654C126.456 37.8654 124.452 35.7023 124.452 32.232C124.452 28.7509 126.466 26.4932 129.588 26.4932C132.659 26.4932 134.59 28.6024 134.59 31.9674V32.7479H126.751V32.8856C126.715 33.294 126.766 33.7055 126.901 34.0926C127.036 34.4798 127.252 34.8338 127.535 35.1311C127.817 35.4284 128.159 35.6622 128.539 35.8171C128.919 35.9719 129.327 36.0442 129.737 36.0291C130.275 36.0795 130.815 35.9548 131.277 35.6736C131.739 35.3923 132.098 34.9695 132.3 34.4681L134.463 34.4681ZM126.762 31.1558H132.31C132.331 30.7885 132.275 30.421 132.147 30.0763C132.019 29.7316 131.82 29.4171 131.565 29.1527C131.309 28.8882 131.002 28.6794 130.662 28.5394C130.321 28.3993 129.956 28.3312 129.588 28.3391C129.217 28.3368 128.85 28.4081 128.506 28.5488C128.163 28.6894 127.851 28.8967 127.588 29.1585C127.326 29.4204 127.117 29.7317 126.975 30.0745C126.834 30.4173 126.761 30.7848 126.762 31.1558V31.1558Z" fill="black"/>
<path d="M46.7474 11.0469C47.225 11.0126 47.7042 11.0848 48.1506 11.2581C48.5969 11.4315 48.9992 11.7018 49.3284 12.0494C49.6577 12.3971 49.9056 12.8135 50.0545 13.2686C50.2033 13.7237 50.2492 14.2062 50.189 14.6812C50.189 17.0179 48.9261 18.3611 46.7474 18.3611H44.1055V11.0469H46.7474ZM45.2415 17.3267H46.6205C46.9618 17.3471 47.3033 17.2911 47.6202 17.1629C47.9372 17.0347 48.2215 16.8374 48.4525 16.5854C48.6836 16.3334 48.8556 16.0331 48.9559 15.7062C49.0563 15.3794 49.0825 15.0343 49.0326 14.6961C49.0788 14.3592 49.05 14.0163 48.9481 13.6918C48.8462 13.3674 48.6738 13.0695 48.4433 12.8196C48.2128 12.5696 47.9298 12.3737 47.6147 12.2459C47.2995 12.1181 46.96 12.0616 46.6205 12.0805H45.2415V17.3267Z" fill="black"/>
<path d="M51.4723 15.5998C51.4376 15.2371 51.4791 14.8711 51.5941 14.5253C51.7091 14.1795 51.8952 13.8616 52.1402 13.592C52.3853 13.3223 52.6841 13.1069 53.0173 12.9594C53.3506 12.812 53.7109 12.7358 54.0753 12.7358C54.4397 12.7358 54.8001 12.812 55.1333 12.9594C55.4666 13.1069 55.7653 13.3223 56.0104 13.592C56.2555 13.8616 56.4415 14.1795 56.5565 14.5253C56.6716 14.8711 56.7131 15.2371 56.6784 15.5998C56.7137 15.9629 56.6727 16.3294 56.558 16.6757C56.4433 17.022 56.2574 17.3405 56.0122 17.6107C55.7671 17.8809 55.4681 18.0968 55.1345 18.2446C54.8009 18.3923 54.4401 18.4686 54.0753 18.4686C53.7105 18.4686 53.3497 18.3923 53.0161 18.2446C52.6826 18.0968 52.3836 17.8809 52.1384 17.6107C51.8933 17.3405 51.7074 17.022 51.5926 16.6757C51.4779 16.3294 51.4369 15.9629 51.4723 15.5998V15.5998ZM55.5579 15.5998C55.5579 14.4033 55.0204 13.7036 54.0771 13.7036C53.1302 13.7036 52.5976 14.4033 52.5976 15.5998C52.5976 16.8059 53.1303 17.5002 54.0771 17.5002C55.0204 17.5001 55.5579 16.8011 55.5579 15.5998H55.5579Z" fill="black"/>
<path d="M63.5987 18.3615H62.4686L61.3278 14.2962H61.2416L60.1056 18.3615H58.9863L57.4648 12.8418H58.5698L59.5585 17.0537H59.6399L60.7748 12.8418H61.8198L62.9546 17.0537H63.0408L64.0248 12.8418H65.1142L63.5987 18.3615Z" fill="black"/>
<path d="M66.3941 12.841H67.4427V13.7178H67.5241C67.6622 13.4029 67.8951 13.1389 68.1904 12.9626C68.4856 12.7863 68.8285 12.7066 69.1713 12.7344C69.4398 12.7142 69.7095 12.7547 69.9603 12.8529C70.2111 12.9511 70.4366 13.1045 70.6201 13.3016C70.8036 13.4988 70.9403 13.7347 71.0203 13.9919C71.1002 14.2491 71.1212 14.521 71.0818 14.7874V18.3606H69.9925V15.061C69.9925 14.1739 69.607 13.7328 68.8014 13.7328C68.619 13.7243 68.437 13.7554 68.2678 13.8238C68.0985 13.8922 67.9461 13.9964 67.8209 14.1293C67.6957 14.2622 67.6007 14.4205 67.5425 14.5935C67.4842 14.7665 67.4641 14.9501 67.4834 15.1316V18.3607H66.394L66.3941 12.841Z" fill="black"/>
<path d="M72.8174 10.687H73.9067V18.3615H72.8174V10.687Z" fill="black"/>
<path d="M75.421 15.5979C75.3863 15.2352 75.4278 14.8692 75.5429 14.5234C75.6579 14.1776 75.844 13.8597 76.0891 13.59C76.3342 13.3204 76.633 13.1049 76.9662 12.9575C77.2995 12.81 77.6599 12.7339 78.0243 12.7339C78.3887 12.7339 78.7491 12.81 79.0824 12.9575C79.4156 13.1049 79.7144 13.3204 79.9595 13.59C80.2046 13.8597 80.3907 14.1776 80.5057 14.5234C80.6208 14.8692 80.6623 15.2352 80.6276 15.5979C80.663 15.9611 80.6219 16.3276 80.5072 16.6739C80.3924 17.0202 80.2065 17.3387 79.9613 17.6089C79.7161 17.879 79.4171 18.0949 79.0835 18.2427C78.75 18.3904 78.3892 18.4668 78.0243 18.4668C77.6595 18.4668 77.2987 18.3904 76.9651 18.2427C76.6315 18.0949 76.3325 17.879 76.0873 17.6089C75.8422 17.3387 75.6562 17.0202 75.5415 16.6739C75.4267 16.3276 75.3857 15.9611 75.421 15.5979V15.5979ZM79.5066 15.5979C79.5066 14.4015 78.9691 13.7018 78.0258 13.7018C77.0789 13.7018 76.5463 14.4015 76.5463 15.598C76.5463 16.804 77.079 17.4983 78.0258 17.4983C78.9691 17.4983 79.5066 16.7992 79.5066 15.5979H79.5066Z" fill="black"/>
<path d="M81.7744 16.8011C81.7744 15.8075 82.5142 15.2347 83.8274 15.1533L85.3226 15.0671V14.5907C85.3226 14.0077 84.9371 13.6785 84.1925 13.6785C83.5844 13.6785 83.163 13.9018 83.0421 14.292H81.9875C82.0988 13.344 82.9906 12.7358 84.2428 12.7358C85.6266 12.7358 86.4071 13.4247 86.4071 14.5907V18.3621H85.3585V17.5864H85.2723C85.0973 17.8646 84.8517 18.0915 84.5604 18.2437C84.2691 18.396 83.9426 18.4682 83.6143 18.453C83.3826 18.4771 83.1484 18.4524 82.9268 18.3805C82.7052 18.3085 82.5012 18.1909 82.3279 18.0353C82.1545 17.8796 82.0157 17.6894 81.9204 17.4768C81.825 17.2643 81.7753 17.0341 81.7744 16.8011V16.8011ZM85.3226 16.3295V15.868L83.9746 15.9542C83.2145 16.005 82.8697 16.2636 82.8697 16.7502C82.8697 17.247 83.3007 17.5361 83.8933 17.5361C84.0669 17.5537 84.2423 17.5361 84.409 17.4846C84.5757 17.433 84.7304 17.3484 84.8637 17.2358C84.9971 17.1232 85.1064 16.9849 85.1852 16.8292C85.2641 16.6735 85.3108 16.5036 85.3226 16.3295V16.3295Z" fill="black"/>
<path d="M87.8389 15.5992C87.8389 13.8551 88.7355 12.7502 90.1301 12.7502C90.475 12.7343 90.8174 12.8169 91.1171 12.9884C91.4169 13.1599 91.6616 13.4131 91.8227 13.7186H91.9042V10.687H92.9935V18.3615H91.9496V17.4894H91.8634C91.6899 17.7928 91.4366 18.0429 91.1311 18.2126C90.8255 18.3824 90.4794 18.4653 90.1301 18.4524C88.7259 18.4525 87.8389 17.3476 87.8389 15.5992ZM88.9642 15.5992C88.9642 16.77 89.516 17.4745 90.439 17.4745C91.3571 17.4745 91.9245 16.7598 91.9245 15.604C91.9245 14.4536 91.3511 13.7288 90.439 13.7288C89.522 13.7288 88.9641 14.4381 88.9641 15.5992H88.9642Z" fill="black"/>
<path d="M97.5006 15.5998C97.4659 15.2371 97.5074 14.8711 97.6224 14.5253C97.7374 14.1795 97.9235 13.8616 98.1686 13.592C98.4137 13.3223 98.7124 13.1069 99.0456 12.9594C99.3789 12.812 99.7392 12.7358 100.104 12.7358C100.468 12.7358 100.828 12.812 101.162 12.9594C101.495 13.1069 101.794 13.3223 102.039 13.592C102.284 13.8616 102.47 14.1795 102.585 14.5253C102.7 14.8711 102.741 15.2371 102.707 15.5998C102.742 15.9629 102.701 16.3294 102.586 16.6757C102.472 17.022 102.286 17.3405 102.041 17.6107C101.795 17.8809 101.496 18.0968 101.163 18.2446C100.829 18.3923 100.468 18.4686 100.104 18.4686C99.7388 18.4686 99.378 18.3923 99.0444 18.2446C98.7109 18.0968 98.4119 17.8809 98.1668 17.6107C97.9216 17.3405 97.7357 17.022 97.621 16.6757C97.5062 16.3294 97.4652 15.9629 97.5006 15.5998V15.5998ZM101.586 15.5998C101.586 14.4033 101.049 13.7036 100.105 13.7036C99.1585 13.7036 98.6259 14.4033 98.6259 15.5998C98.6259 16.8059 99.1586 17.5002 100.105 17.5002C101.049 17.5001 101.586 16.8011 101.586 15.5998Z" fill="black"/>
<path d="M104.168 12.841H105.217V13.7178H105.299C105.437 13.4029 105.67 13.1389 105.965 12.9626C106.26 12.7863 106.603 12.7066 106.946 12.7344C107.214 12.7142 107.484 12.7547 107.735 12.8529C107.986 12.9511 108.211 13.1045 108.395 13.3016C108.578 13.4988 108.715 13.7347 108.795 13.9919C108.875 14.2491 108.896 14.521 108.856 14.7874V18.3606H107.767V15.061C107.767 14.1739 107.381 13.7328 106.576 13.7328C106.393 13.7243 106.211 13.7554 106.042 13.8238C105.873 13.8922 105.721 13.9964 105.595 14.1293C105.47 14.2622 105.375 14.4205 105.317 14.5935C105.259 14.7665 105.238 14.9501 105.258 15.1316V18.3607H104.168V12.841Z" fill="black"/>
<path d="M115.011 11.4673V12.8667H116.207V13.7842H115.011V16.6225C115.011 17.2007 115.249 17.4539 115.792 17.4539C115.931 17.4534 116.069 17.445 116.207 17.4287V18.3361C116.011 18.3711 115.813 18.3897 115.615 18.3918C114.403 18.3918 113.921 17.9656 113.921 16.9014V13.7842H113.044V12.8666H113.921V11.4673H115.011Z" fill="black"/>
<path d="M117.695 10.687H118.775V13.7288H118.861C119.006 13.4109 119.245 13.1454 119.547 12.9685C119.848 12.7915 120.196 12.7118 120.544 12.74C120.811 12.7255 121.079 12.7701 121.327 12.8706C121.574 12.9712 121.797 13.1253 121.979 13.3218C122.16 13.5183 122.296 13.7525 122.377 14.0077C122.458 14.2628 122.481 14.5326 122.445 14.7978V18.3615H121.355V15.0665C121.355 14.1849 120.944 13.7384 120.175 13.7384C119.987 13.723 119.799 13.7487 119.623 13.8138C119.446 13.8788 119.287 13.9816 119.154 14.1148C119.022 14.2481 118.92 14.4087 118.856 14.5854C118.793 14.7621 118.768 14.9506 118.785 15.1377V18.3615H117.695L117.695 10.687Z" fill="black"/>
<path d="M128.797 16.8699C128.649 17.3743 128.328 17.8107 127.891 18.1026C127.454 18.3946 126.928 18.5235 126.405 18.4668C126.042 18.4764 125.68 18.4067 125.346 18.2627C125.012 18.1186 124.714 17.9036 124.471 17.6325C124.228 17.3614 124.048 17.0408 123.941 16.6929C123.835 16.345 123.806 15.9781 123.856 15.6177C123.807 15.2563 123.837 14.8886 123.943 14.5397C124.049 14.1907 124.229 13.8686 124.47 13.5952C124.711 13.3217 125.009 13.1033 125.342 12.9547C125.675 12.8062 126.036 12.7309 126.401 12.734C127.936 12.734 128.863 13.7833 128.863 15.5166V15.8967H124.965V15.9577C124.948 16.1603 124.974 16.3642 125.04 16.5563C125.106 16.7485 125.212 16.9246 125.351 17.0735C125.489 17.2224 125.657 17.3407 125.844 17.4209C126.031 17.501 126.232 17.5413 126.435 17.539C126.696 17.5703 126.96 17.5234 127.194 17.4042C127.428 17.2851 127.621 17.099 127.748 16.8698L128.797 16.8699ZM124.965 15.091H127.753C127.767 14.9058 127.742 14.7197 127.679 14.5447C127.617 14.3698 127.518 14.2099 127.391 14.0752C127.263 13.9405 127.108 13.8341 126.936 13.7628C126.765 13.6915 126.58 13.6569 126.395 13.6611C126.206 13.6588 126.019 13.6941 125.845 13.7652C125.67 13.8362 125.512 13.9414 125.378 14.0747C125.245 14.208 125.14 14.3665 125.069 14.5411C124.998 14.7156 124.963 14.9026 124.965 15.091H124.965Z" fill="black"/>
</g>
<defs>
<clipPath id="clip0_1275_57226">
<rect width="146.685" height="49.0323" fill="white" transform="translate(0.379883 0.344238)"/>
</clipPath>
</defs>
</svg>
