<svg width="165" height="50" viewBox="0 0 165 50" fill="none" xmlns="http://www.w3.org/2000/svg">
<path d="M152.935 0.45166H12.4778C12.0198 0.45166 11.5946 0.45166 11.1367 0.45166C10.7769 0.45166 10.3843 0.45166 10.0245 0.45166C9.20678 0.48437 8.38903 0.51708 7.60399 0.68063C6.78624 0.81147 6.03391 1.07315 5.31429 1.43296C4.59467 1.79277 3.94047 2.28342 3.35169 2.8722C2.76291 3.46098 2.30497 4.11518 1.91245 4.8348C1.51993 5.58713 1.29096 6.33946 1.16012 7.1245C1.02928 7.94225 0.963862 8.72729 0.931152 9.54504C0.931152 9.93756 0.931152 10.2974 0.931152 10.6899C0.931152 11.1151 0.931152 11.5731 0.931152 11.9983V37.97C0.931152 38.428 0.931152 38.8532 0.931152 39.2784C0.931152 39.6382 0.931152 40.0308 0.963862 40.3906C0.996572 41.2083 1.02928 42.0261 1.19283 42.8111C1.32367 43.6289 1.58535 44.3812 1.94516 45.1008C2.30497 45.8204 2.79562 46.4746 3.3844 47.0634C3.97318 47.6522 4.62738 48.1101 5.347 48.5026C6.09933 48.8952 6.85166 49.1241 7.6367 49.255C8.45445 49.3858 9.2722 49.4512 10.0572 49.4839C10.4171 49.4839 10.8096 49.4839 11.1694 49.4839C11.6273 49.4839 12.0526 49.4839 12.5105 49.4839H152.967C153.392 49.4839 153.85 49.4839 154.276 49.4839C154.635 49.4839 155.028 49.4839 155.388 49.4839C156.206 49.4512 157.023 49.4185 157.808 49.255C158.626 49.1241 159.378 48.8625 160.131 48.5026C160.85 48.1428 161.505 47.6522 162.093 47.0634C162.682 46.5073 163.14 45.8204 163.533 45.1008C163.892 44.3812 164.154 43.5961 164.285 42.8111C164.448 41.9934 164.481 41.2083 164.514 40.3906C164.514 40.0308 164.514 39.6382 164.514 39.2784C164.514 38.8532 164.514 38.3953 164.514 37.97V11.9983C164.514 11.5403 164.514 11.1151 164.514 10.6899C164.514 10.3301 164.514 9.93756 164.514 9.57775C164.481 8.76 164.448 7.94225 164.285 7.15721C164.154 6.33946 163.892 5.58713 163.533 4.86751C163.173 4.14789 162.682 3.49369 162.093 2.90491C161.537 2.31613 160.85 1.85819 160.131 1.46567C159.378 1.10586 158.626 0.84418 157.808 0.71334C157.023 0.5825 156.206 0.51708 155.388 0.48437C155.028 0.48437 154.635 0.48437 154.276 0.48437C153.818 0.45166 153.392 0.45166 152.935 0.45166Z" fill="black"/>
<path d="M11.1695 48.4701C10.8097 48.4701 10.4499 48.4701 10.0901 48.4701C9.4032 48.4374 8.61816 48.4047 7.83312 48.2738C7.08079 48.143 6.42659 47.914 5.83781 47.6196C5.21632 47.2925 4.62754 46.9 4.13689 46.3767C3.64624 45.886 3.22101 45.3299 2.89391 44.6757C2.56681 44.0542 2.37055 43.4 2.23971 42.6804C2.07616 41.8627 2.04345 41.0449 2.04345 40.4234C2.04345 40.1618 2.01074 39.3113 2.01074 39.3113V10.69C2.01074 10.69 2.01074 9.83959 2.04345 9.61062C2.04345 8.98913 2.10887 8.13867 2.23971 7.35363C2.37055 6.6013 2.59952 5.9471 2.89391 5.32561C3.22101 4.70412 3.61353 4.11534 4.13689 3.62469C4.62754 3.13404 5.21632 2.70881 5.83781 2.38171C6.4593 2.05461 7.1135 1.85835 7.83312 1.72751C8.65087 1.59667 9.46862 1.53125 10.0901 1.53125H11.1695H154.276H155.388C156.009 1.53125 156.827 1.59667 157.645 1.72751C158.365 1.85835 159.019 2.08732 159.673 2.38171C160.294 2.70881 160.85 3.10133 161.374 3.62469C161.864 4.11534 162.29 4.67141 162.617 5.32561C162.944 5.9471 163.14 6.6013 163.271 7.32092C163.402 8.07325 163.467 8.85829 163.467 9.61062C163.467 9.93772 163.467 10.3302 163.467 10.69C163.467 11.148 163.467 11.5732 163.467 11.9984V37.9702C163.467 38.3954 163.467 38.8534 163.467 39.2786C163.467 39.6711 163.467 40.0309 163.467 40.3907C163.435 41.1103 163.402 41.8954 163.271 42.6477C163.14 43.4 162.944 44.0542 162.617 44.6757C162.29 45.2972 161.864 45.886 161.374 46.3439C160.883 46.8346 160.294 47.2598 159.673 47.5869C159.051 47.914 158.397 48.1103 157.645 48.2411C156.86 48.372 156.075 48.4047 155.388 48.4374C155.028 48.4374 154.668 48.4374 154.308 48.4374H153L11.1695 48.4701Z" fill="white"/>
<path d="M61.6407 33.5868H55.8837L54.4772 37.4139H51.9585L57.5846 23.0542H59.9724L65.7294 37.4139H63.0799L61.6407 33.5868ZM56.6033 31.6242H60.8883L59.351 27.5028C59.1547 26.9467 58.9257 26.2925 58.7295 25.6056C58.5332 26.2271 58.3369 26.8486 58.1407 27.47L56.6033 31.6242Z" fill="black"/>
<path d="M66.7436 29.3345C66.7436 28.5495 66.7109 27.6663 66.6782 26.7177H68.9679C69.0661 27.1757 69.0988 27.6009 69.1315 28.0589C70.0801 27.0121 71.1595 26.4888 72.4025 26.4888C73.1221 26.4888 73.7763 26.6523 74.3978 27.0121C75.0193 27.3719 75.5099 27.928 75.8697 28.7131C76.2295 29.4981 76.4258 30.4794 76.4258 31.6569C76.4258 32.8999 76.1968 33.9794 75.7716 34.8625C75.3464 35.7457 74.7576 36.4326 73.9726 36.8578C73.2202 37.3158 72.3371 37.5447 71.323 37.5447C70.6034 37.5447 69.8838 37.4139 69.1642 37.1849V41.6662L66.7109 41.8625V29.3345H66.7436ZM73.1875 34.7971C73.6782 34.1429 73.9398 33.1616 73.9398 31.8532C73.9398 30.6429 73.7436 29.7925 73.3184 29.2691C72.8931 28.7458 72.3698 28.4514 71.6829 28.4514C71.1922 28.4514 70.767 28.5495 70.3745 28.7785C69.9819 29.0074 69.5894 29.3018 69.2296 29.6944V35.4186C69.4586 35.5494 69.753 35.6476 70.0801 35.713C70.4072 35.7784 70.7343 35.8111 71.0287 35.8111C71.9445 35.8111 72.6641 35.484 73.1875 34.7971Z" fill="black"/>
<path d="M77.8979 29.3345C77.8979 28.5495 77.8652 27.6663 77.8325 26.7177H80.1222C80.2203 27.1757 80.2531 27.6009 80.2858 28.0589C81.2344 27.0121 82.3138 26.4888 83.5568 26.4888C84.2764 26.4888 84.9306 26.6523 85.5521 27.0121C86.1736 27.3719 86.6642 27.928 87.024 28.7131C87.3838 29.4981 87.5801 30.4794 87.5801 31.6569C87.5801 32.8999 87.3511 33.9794 86.9259 34.8625C86.5007 35.7457 85.9119 36.4326 85.1268 36.8578C84.3745 37.3158 83.4913 37.5447 82.4773 37.5447C81.7577 37.5447 81.0381 37.4139 80.3185 37.1849V41.6662L77.8652 41.8625V29.3345H77.8979ZM84.3418 34.7971C84.8325 34.1429 85.0941 33.1616 85.0941 31.8532C85.0941 30.6429 84.8979 29.7925 84.4726 29.2691C84.0474 28.7458 83.5241 28.4514 82.8371 28.4514C82.3465 28.4514 81.9213 28.5495 81.5287 28.7785C81.1362 29.0074 80.7437 29.3018 80.3839 29.6944V35.4186C80.6129 35.5494 80.9073 35.6476 81.2344 35.713C81.5615 35.7784 81.8886 35.8111 82.1829 35.8111C83.0988 35.8111 83.8512 35.484 84.3418 34.7971Z" fill="black"/>
<path d="M92.061 36.727C91.0143 36.1382 90.1966 35.3204 89.6405 34.2083C89.0844 33.1289 88.79 31.8205 88.79 30.3485C88.79 28.7457 89.1171 27.3719 89.7713 26.2598C90.4255 25.1476 91.3087 24.2972 92.4536 23.7411C93.5657 23.185 94.8414 22.8906 96.2479 22.8906C97.0657 22.8906 97.8507 22.9888 98.603 23.1523C99.3554 23.3486 100.042 23.5775 100.696 23.9046L100.075 25.8018C98.7666 25.1803 97.5236 24.8859 96.346 24.8859C95.3648 24.8859 94.4816 25.1149 93.7293 25.5401C92.9769 25.9654 92.3881 26.5869 91.9956 27.4046C91.5704 28.2224 91.3741 29.2364 91.3741 30.3812C91.3741 31.3952 91.5377 32.3111 91.8648 33.0961C92.1919 33.8812 92.6825 34.5027 93.3694 34.9933C94.0563 35.4513 94.9395 35.6802 95.9862 35.6802C96.4769 35.6802 96.9348 35.6475 97.4255 35.5494C97.9161 35.4513 98.3414 35.3531 98.7666 35.1896V32.2784H95.4629V30.3812H101.154V36.4326C100.337 36.8251 99.4862 37.1195 98.5703 37.3157C97.6544 37.512 96.7713 37.6101 95.8881 37.6101C94.3834 37.6101 93.1405 37.3157 92.061 36.727Z" fill="black"/>
<path d="M109.757 37.4139C109.659 36.9887 109.626 36.5307 109.594 36.0074C109.201 36.4653 108.743 36.8251 108.122 37.1522C107.533 37.4793 106.846 37.6102 106.061 37.6102C105.44 37.6102 104.883 37.4793 104.393 37.2504C103.902 37.0214 103.477 36.6616 103.183 36.1709C102.888 35.6803 102.725 35.0915 102.725 34.4046C102.725 33.3579 103.084 32.5401 103.837 31.9186C104.589 31.2971 105.832 31.0028 107.566 31.0028C108.22 31.0028 108.874 31.0355 109.496 31.1336V30.9373C109.496 29.9887 109.299 29.3345 108.907 28.942C108.514 28.5495 107.925 28.3532 107.173 28.3532C106.65 28.3532 106.094 28.4187 105.505 28.5822C104.916 28.7458 104.393 28.9093 103.935 29.1383L103.542 27.3719C103.968 27.1757 104.556 26.9794 105.276 26.8159C105.996 26.6523 106.748 26.5542 107.533 26.5542C108.449 26.5542 109.234 26.685 109.888 26.9794C110.542 27.2738 111.033 27.7318 111.393 28.4187C111.753 29.1056 111.949 30.0215 111.949 31.1663V35.4186C111.949 35.8765 111.982 36.5307 112.014 37.4139H109.757V37.4139ZM108.318 35.4186C108.841 35.1896 109.234 34.8625 109.561 34.5027V32.5074C108.907 32.442 108.351 32.4093 107.925 32.4093C106.911 32.4093 106.225 32.5728 105.832 32.8999C105.44 33.227 105.243 33.6523 105.243 34.2083C105.243 34.7317 105.374 35.1242 105.669 35.3859C105.963 35.6476 106.323 35.7784 106.813 35.7784C107.304 35.8111 107.795 35.6803 108.318 35.4186Z" fill="black"/>
<path d="M113.879 34.8624V22.2363L116.299 22.04V34.4371C116.299 34.8951 116.365 35.2222 116.528 35.4184C116.692 35.6147 116.921 35.7128 117.281 35.7128C117.444 35.7128 117.641 35.6801 117.935 35.6147L118.229 37.381C118 37.4792 117.706 37.5446 117.379 37.61C117.052 37.6754 116.725 37.7081 116.43 37.7081C114.729 37.61 113.879 36.6941 113.879 34.8624Z" fill="black"/>
<path d="M119.963 34.8624V22.2363L122.383 22.04V34.4371C122.383 34.8951 122.449 35.2222 122.612 35.4184C122.776 35.6147 123.005 35.7128 123.365 35.7128C123.528 35.7128 123.725 35.6801 124.019 35.6147L124.313 37.381C124.084 37.4792 123.79 37.5446 123.463 37.61C123.136 37.6754 122.809 37.7081 122.514 37.7081C120.813 37.61 119.963 36.6941 119.963 34.8624Z" fill="black"/>
<path d="M134.322 32.3766H127.322C127.421 34.6008 128.5 35.7457 130.528 35.7457C131.019 35.7457 131.542 35.6803 132.065 35.5494C132.589 35.4186 133.079 35.2551 133.57 35.0588L134.093 36.727C132.883 37.3158 131.542 37.6102 130.07 37.6102C128.925 37.6102 127.977 37.3812 127.192 36.956C126.407 36.5307 125.818 35.9092 125.425 35.0915C125.033 34.2738 124.836 33.3252 124.836 32.1803C124.836 31.0027 125.033 29.9887 125.458 29.1383C125.883 28.2878 126.439 27.6336 127.192 27.1757C127.944 26.7177 128.794 26.4888 129.776 26.4888C130.79 26.4888 131.64 26.7177 132.294 27.2084C132.981 27.6663 133.472 28.3205 133.799 29.1056C134.126 29.8906 134.29 30.7738 134.29 31.7224V32.3766H134.322ZM131.934 30.8392C131.902 29.9887 131.673 29.3345 131.28 28.9093C130.888 28.4841 130.397 28.2551 129.743 28.2551C129.121 28.2551 128.598 28.4841 128.206 28.9093C127.78 29.3345 127.519 29.9887 127.388 30.8065H131.934V30.8392Z" fill="black"/>
<path d="M136.154 29.4C136.154 28.8112 136.122 27.928 136.089 26.7177H138.379C138.411 27.0121 138.444 27.3719 138.477 27.7972C138.509 28.2224 138.542 28.5495 138.542 28.8112C138.837 28.3532 139.098 27.9607 139.393 27.6336C139.654 27.3065 139.981 27.0448 140.341 26.8486C140.701 26.6523 141.126 26.5542 141.584 26.5542C141.977 26.5542 142.271 26.5869 142.565 26.685L142.271 28.8112C142.042 28.7458 141.78 28.7131 141.486 28.7131C140.897 28.7131 140.407 28.8439 139.981 29.1383C139.556 29.4327 139.098 29.9233 138.608 30.5775V37.4466H136.187V29.4H136.154Z" fill="black"/>
<path d="M143.939 41.7971C143.58 41.7317 143.285 41.6662 143.056 41.5681L143.514 39.8018C143.678 39.8345 143.874 39.8999 144.136 39.9326C144.397 39.9653 144.626 39.998 144.855 39.998C145.935 39.998 146.752 39.3111 147.276 37.9046L147.439 37.5121L143.514 26.7505H146.131L148.126 32.7691C148.453 33.7831 148.65 34.6009 148.748 35.1242C148.944 34.3392 149.14 33.5869 149.402 32.8018L151.397 26.7178H153.85L149.925 37.5448C149.565 38.5588 149.14 39.4092 148.715 40.0307C148.29 40.6522 147.766 41.1102 147.21 41.4373C146.622 41.7317 145.935 41.8952 145.084 41.8952C144.692 41.8952 144.299 41.8625 143.939 41.7971Z" fill="black"/>
<path d="M51.9585 9.41406H56.3089L56.1781 10.4608H53.2342V12.4888H56.0145V13.4701H53.2342V15.7271H56.3416L56.2435 16.7738H51.9585V9.41406Z" fill="black"/>
<path d="M59.3185 13.0449L57.0288 9.41406H58.468L60.0381 12.0636L61.6736 9.41406H63.0801L60.7904 12.9795L63.2437 16.8065H61.7717L60.0054 13.8953L58.2063 16.8065H56.7998L59.3185 13.0449Z" fill="black"/>
<path d="M64.1924 9.41406H66.1877C67.1363 9.41406 67.8559 9.61032 68.3466 10.0028C68.8372 10.3954 69.0989 10.9514 69.0989 11.6711C69.0989 12.1617 69.0008 12.5869 68.7718 12.9467C68.5428 13.3066 68.2484 13.6009 67.8232 13.7972C67.4307 13.9935 66.9727 14.0916 66.4494 14.0916C66.155 14.0916 65.8279 14.0589 65.4681 13.9935V16.8065H64.1924V9.41406ZM67.398 12.7178C67.6596 12.4561 67.7905 12.129 67.7905 11.6711C67.7905 11.2131 67.6596 10.886 67.3653 10.6898C67.1036 10.4935 66.6783 10.3954 66.155 10.3954H65.4681V13.0122C65.7952 13.0776 66.0241 13.0776 66.1877 13.0776C66.7438 13.0776 67.1363 12.9467 67.398 12.7178Z" fill="black"/>
<path d="M70.3745 9.41406H71.6502V15.7271H74.7249L74.6268 16.8065H70.4072V9.41406H70.3745Z" fill="black"/>
<path d="M76.6545 16.4467C76.0985 16.1523 75.7059 15.6944 75.4116 15.1383C75.1172 14.5822 74.9863 13.928 74.9863 13.1757C74.9863 12.3907 75.1499 11.7037 75.4443 11.115C75.7387 10.5262 76.1966 10.0682 76.7527 9.77385C77.3415 9.44675 77.9956 9.2832 78.7807 9.2832C79.533 9.2832 80.1545 9.44675 80.7106 9.74114C81.2339 10.0355 81.6592 10.4935 81.9536 11.0495C82.2479 11.6056 82.3788 12.2598 82.3788 12.9794C82.3788 13.7645 82.2152 14.4514 81.9209 15.0402C81.6265 15.6289 81.1685 16.0869 80.6125 16.3813C80.0564 16.7084 79.3695 16.8719 78.6171 16.8719C77.8321 16.9046 77.1779 16.7411 76.6545 16.4467ZM79.9583 15.5308C80.3181 15.3018 80.5797 14.9747 80.776 14.5495C80.9396 14.1243 81.0377 13.6336 81.0377 13.1103C81.0377 12.5869 80.9723 12.0963 80.8087 11.7037C80.6452 11.2785 80.4162 10.9514 80.0564 10.7224C79.6966 10.4608 79.2713 10.3626 78.7153 10.3626C78.1919 10.3626 77.7667 10.4935 77.4069 10.7224C77.0471 10.9841 76.7854 11.3112 76.5891 11.7365C76.3929 12.1617 76.3274 12.6196 76.3274 13.143C76.3274 13.6663 76.4256 14.157 76.5891 14.5822C76.7527 15.0075 77.0143 15.3346 77.3742 15.5962C77.734 15.8579 78.1592 15.956 78.6826 15.956C79.1732 15.8906 79.5984 15.7925 79.9583 15.5308Z" fill="black"/>
<path d="M83.7856 9.41406H86.1081C86.9585 9.41406 87.58 9.57761 88.0379 9.90471C88.4959 10.2318 88.6921 10.7225 88.6921 11.344C88.6921 11.7365 88.6267 12.0963 88.4632 12.3907C88.2996 12.6851 88.1034 12.9467 87.8744 13.1103C87.6454 13.3066 87.4165 13.4374 87.1548 13.5355L89.4445 16.8065H87.9398L86.0099 13.8626H85.0613V16.8065H83.7856V9.41406V9.41406ZM85.781 12.914C86.0753 12.914 86.3697 12.8486 86.5987 12.7178C86.8277 12.5869 87.0239 12.4234 87.1548 12.1944C87.2856 11.9654 87.351 11.7038 87.351 11.4421C87.351 11.0823 87.2202 10.7879 86.9912 10.6243C86.7623 10.4608 86.4024 10.3627 85.9772 10.3627H85.0613V12.8813H85.781V12.914Z" fill="black"/>
<path d="M90.4258 9.41406H94.7762L94.6454 10.4608H91.7015V12.4888H94.4818V13.4701H91.7015V15.7271H94.8089L94.7108 16.7738H90.4258V9.41406Z" fill="black"/>
<path d="M99.519 9.41406H100.795V16.8065H99.519V9.41406Z" fill="black"/>
<path d="M104.196 10.4608H101.907L102.005 9.38135H107.762L107.631 10.4608H105.439V16.8065H104.164V10.4608H104.196Z" fill="black"/>
<path d="M113.323 16.4467C112.766 16.1523 112.374 15.6944 112.08 15.1383C111.785 14.5822 111.654 13.928 111.654 13.1757C111.654 12.3907 111.818 11.7037 112.112 11.115C112.407 10.5262 112.865 10.0682 113.421 9.77385C114.009 9.44675 114.664 9.2832 115.449 9.2832C116.201 9.2832 116.822 9.44675 117.379 9.74114C117.902 10.0355 118.327 10.4935 118.622 11.0495C118.916 11.6056 119.047 12.2598 119.047 12.9794C119.047 13.7645 118.883 14.4514 118.589 15.0402C118.294 15.6289 117.836 16.0869 117.28 16.3813C116.724 16.7084 116.037 16.8719 115.285 16.8719C114.5 16.9046 113.846 16.7411 113.323 16.4467ZM116.626 15.5308C116.986 15.3018 117.248 14.9747 117.444 14.5495C117.608 14.1243 117.706 13.6336 117.706 13.1103C117.706 12.5869 117.64 12.0963 117.477 11.7037C117.313 11.2785 117.084 10.9514 116.724 10.7224C116.365 10.4608 115.939 10.3626 115.383 10.3626C114.86 10.3626 114.435 10.4935 114.075 10.7224C113.715 10.9841 113.453 11.3112 113.257 11.7365C113.061 12.1617 112.995 12.6196 112.995 13.143C112.995 13.6663 113.094 14.157 113.257 14.5822C113.421 15.0075 113.682 15.3346 114.042 15.5962C114.402 15.8579 114.827 15.956 115.351 15.956C115.808 15.8906 116.266 15.7925 116.626 15.5308Z" fill="black"/>
<path d="M120.454 9.41406H121.926L125.589 15.1383C125.556 14.5822 125.556 14.0916 125.556 13.6337V9.41406H126.734V16.8065H125.327L121.598 10.9841C121.631 11.6383 121.664 12.2271 121.664 12.7505V16.8065H120.486V9.41406H120.454Z" fill="black"/>
<path fill-rule="evenodd" clip-rule="evenodd" d="M33.9684 9.44678H20.3937C13.9826 9.44678 11.6602 11.8019 11.6602 18.1803V31.755C11.6602 38.1662 14.0153 40.4886 20.3937 40.4886H33.9684C40.3795 40.4886 42.7019 38.1334 42.7019 31.755V18.1803C42.7346 11.8019 40.3795 9.44678 33.9684 9.44678Z" fill="#C8102E"/>
<path d="M17.8097 24.9839H18.6274V29.0399H17.8097V27.4044H15.9452V29.0399H15.1274V24.9839H15.9452V26.6194H17.8097V24.9839ZM22.4545 27.3063C22.4545 27.9605 22.1274 28.3203 21.5386 28.3203C20.9498 28.3203 20.6227 27.9605 20.6227 27.2736V24.9839H19.805V27.3063C19.805 28.4511 20.4265 29.1053 21.5386 29.1053C22.6507 29.1053 23.3049 28.4511 23.3049 27.2736V24.9839H22.4872V27.3063H22.4545ZM31.9731 27.7642L31.0572 24.9839H30.3703L29.4544 27.7642L28.5712 24.9839H27.6881L29.0946 29.0399H29.7815L30.6974 26.3577L31.6133 29.0399H32.3002L33.7067 24.9839H32.8563L31.9731 27.7642ZM35.2114 27.3063H36.716V26.554H35.2114V25.7362H37.4029V24.9839H34.4263V29.0399H37.5011V28.2876H35.2441V27.3063H35.2114ZM38.4497 29.0399H39.2674V24.9839H38.4497V29.0399ZM24.9077 28.1895L24.5479 29.0399H23.6975L25.4638 24.9839H26.1834L27.9498 29.0399H27.0993L26.7722 28.1895H24.9077ZM25.2021 27.4698H26.4451L25.8236 26.0306L25.2021 27.4698Z" fill="white"/>
<path d="M27.1975 19.8156C24.3517 19.8156 22.0293 17.4932 22.0293 14.6475H22.7489C22.7489 17.1007 24.7442 19.096 27.1975 19.096C29.6507 19.096 31.646 17.1007 31.646 14.6475H32.3657C32.3657 17.4932 30.0432 19.8156 27.1975 19.8156Z" fill="white"/>
</svg>
