<svg width="21" height="22" viewBox="0 0 21 22" fill="none" xmlns="http://www.w3.org/2000/svg">
<g clip-path="url(#clip0_1069_61153)">
<path d="M17.2047 5.22418C15.9202 4.63476 14.5426 4.2005 13.1024 3.95179C13.0761 3.94699 13.0499 3.95898 13.0364 3.98298C12.8593 4.29807 12.663 4.70913 12.5256 5.03223C10.9765 4.80031 9.43536 4.80031 7.91801 5.03223C7.78057 4.70195 7.57721 4.29807 7.39925 3.98298C7.38574 3.95978 7.35954 3.94779 7.33331 3.95179C5.89383 4.19971 4.51632 4.63397 3.23095 5.22418C3.21983 5.22897 3.21029 5.23698 3.20396 5.24737C0.591113 9.1509 -0.124655 12.9585 0.226477 16.7189C0.228065 16.7373 0.238393 16.7549 0.252692 16.7661C1.97657 18.032 3.64645 18.8006 5.28531 19.31C5.31154 19.318 5.33933 19.3084 5.35602 19.2868C5.7437 18.7574 6.08927 18.1992 6.38557 17.6122C6.40306 17.5778 6.38637 17.537 6.35063 17.5234C5.80248 17.3155 5.28054 17.062 4.77847 16.7741C4.73876 16.7509 4.73558 16.6941 4.77211 16.6669C4.87777 16.5877 4.98345 16.5053 5.08434 16.4222C5.10259 16.407 5.12802 16.4038 5.14948 16.4134C8.44788 17.9193 12.0188 17.9193 15.2783 16.4134C15.2997 16.403 15.3252 16.4062 15.3442 16.4214C15.4451 16.5045 15.5508 16.5877 15.6572 16.6669C15.6937 16.6941 15.6914 16.7509 15.6517 16.7741C15.1496 17.0675 14.6276 17.3155 14.0787 17.5226C14.043 17.5362 14.0271 17.5778 14.0446 17.6122C14.3472 18.1984 14.6928 18.7566 15.0733 19.286C15.0892 19.3084 15.1178 19.318 15.144 19.31C16.7908 18.8006 18.4607 18.032 20.1846 16.7661C20.1997 16.7549 20.2092 16.7381 20.2108 16.7197C20.631 12.3723 19.5069 8.59589 17.2309 5.24816C17.2254 5.23698 17.2159 5.22897 17.2047 5.22418ZM6.87813 14.4292C5.88509 14.4292 5.06685 13.5175 5.06685 12.3979C5.06685 11.2782 5.86922 10.3665 6.87813 10.3665C7.89496 10.3665 8.70528 11.2862 8.68939 12.3979C8.68939 13.5175 7.88702 14.4292 6.87813 14.4292ZM13.575 14.4292C12.582 14.4292 11.7638 13.5175 11.7638 12.3979C11.7638 11.2782 12.5661 10.3665 13.575 10.3665C14.5919 10.3665 15.4022 11.2862 15.3863 12.3979C15.3863 13.5175 14.5919 14.4292 13.575 14.4292Z" fill="black"/>
</g>
<defs>
<clipPath id="clip0_1069_61153">
<rect width="20.339" height="20.339" fill="white" transform="translate(0.0507812 0.830383)"/>
</clipPath>
</defs>
</svg>
