<svg width="166" height="50" viewBox="0 0 166 50" fill="none" xmlns="http://www.w3.org/2000/svg">
<g clip-path="url(#clip0_1275_57225)">
<path d="M158.893 49.1465H6.4296C3.0754 49.1465 0.331055 46.4021 0.331055 43.0479V6.45669C0.331055 3.10249 3.0754 0.358145 6.4296 0.358145H158.893C162.247 0.358145 164.992 3.10249 164.992 6.45669V43.0479C164.992 46.4021 162.247 49.1465 158.893 49.1465Z" fill="white"/>
<path d="M158.893 0.358145H6.4296C3.0754 0.358145 0.331055 3.10249 0.331055 6.45669V43.0479C0.331055 46.4021 3.0754 49.1465 6.4296 49.1465H158.893C162.247 49.1465 164.992 46.4021 164.992 43.0479V6.45669C164.992 3.10249 162.247 0.358145 158.893 0.358145ZM158.893 1.33391C161.718 1.33391 164.016 3.63233 164.016 6.45669V43.0479C164.016 45.8728 161.718 48.1712 158.893 48.1712H6.4296C3.60524 48.1712 1.30682 45.8728 1.30682 43.0479V6.45669C1.30682 3.63233 3.60524 1.33391 6.4296 1.33391H158.893Z" fill="black"/>
<path d="M58.1678 12.8522C58.1678 13.8741 57.8652 14.6879 57.2591 15.295C56.5707 16.0168 55.6735 16.3779 54.5705 16.3779C53.5142 16.3779 52.6162 16.012 51.8776 15.2792C51.1378 14.5469 50.7686 13.6388 50.7686 12.5554C50.7686 11.4714 51.1378 10.5638 51.8776 9.83102C52.6162 9.09871 53.5142 8.73231 54.5705 8.73231C55.0946 8.73231 55.5964 8.83476 56.0728 9.03919C56.5492 9.2441 56.9314 9.51609 57.2173 9.85676L56.574 10.5004C56.0895 9.92152 55.4225 9.63233 54.5705 9.63233C53.8001 9.63233 53.1341 9.90299 52.5719 10.4447C52.0096 10.9869 51.7286 11.6901 51.7286 12.5554C51.7286 13.4206 52.0096 14.1238 52.5719 14.6661C53.1341 15.2077 53.8001 15.4784 54.5705 15.4784C55.3877 15.4784 56.069 15.2063 56.6145 14.6613C56.9686 14.3063 57.1734 13.8128 57.2281 13.179H54.5705V12.3H58.1168C58.1511 12.4911 58.1678 12.6745 58.1678 12.8522" fill="black"/>
<path d="M58.1677 12.8523H58.0457C58.0448 13.8509 57.7531 14.6265 57.1728 15.2088L57.1714 15.2098L57.171 15.2108C56.5044 15.9077 55.6477 16.2546 54.5704 16.2561C53.5423 16.2546 52.6818 15.9039 51.9633 15.1931C51.2463 14.4808 50.8918 13.6112 50.8904 12.5555C50.8918 11.4992 51.2463 10.6302 51.9633 9.91833C52.6818 9.207 53.5423 8.85584 54.5704 8.85438C55.0788 8.85438 55.5629 8.95354 56.0245 9.15126C56.4867 9.35043 56.8518 9.61145 57.1237 9.93553L57.2172 9.85686L57.1309 9.77062L56.4877 10.4148L56.5739 10.5005L56.6678 10.4224C56.1608 9.8149 55.4491 9.50863 54.5704 9.51046C53.7715 9.50948 53.0687 9.79489 52.4874 10.3572C51.9005 10.9213 51.6055 11.664 51.6065 12.5555C51.6055 13.4469 51.9005 14.1896 52.4874 14.7537C53.0687 15.316 53.7715 15.6014 54.5704 15.6005C55.4147 15.6019 56.1342 15.3155 56.7006 14.7476C57.079 14.3683 57.2934 13.8429 57.3496 13.1896L57.361 13.0571H54.6924V12.422H58.1167V12.3001L57.9966 12.3215C58.03 12.5064 58.0457 12.6822 58.0457 12.8523H58.1677H58.2897C58.2897 12.6669 58.2725 12.4764 58.2367 12.2782L58.2187 12.1781H54.4484V13.1791V13.3011H57.228V13.1791L57.1066 13.1686C57.0528 13.7824 56.8574 14.2445 56.5282 14.5752C56.0041 15.0973 55.3609 15.3551 54.5704 15.3565C53.8286 15.3555 53.1992 15.1001 52.6566 14.5785C52.1192 14.0586 51.8518 13.395 51.8505 12.5555C51.8518 11.7159 52.1192 11.0523 52.6566 10.5325C53.1992 10.0108 53.8286 9.75538 54.5704 9.7544C55.3952 9.75635 56.018 10.0288 56.4806 10.5792L56.5663 10.6811L57.3034 9.94309L57.3824 9.86405L57.3105 9.77867C57.0108 9.42142 56.6116 9.13784 56.1208 8.92732C55.6291 8.71619 55.1103 8.61044 54.5704 8.61044C53.4861 8.60946 52.5503 8.99062 51.7913 9.74489C51.0295 10.4977 50.6455 11.4439 50.6465 12.5555C50.6455 13.6665 51.0295 14.6132 51.7918 15.3665C52.5503 16.1203 53.4861 16.501 54.5704 16.5C55.6996 16.501 56.6363 16.1259 57.3472 15.3793L57.259 15.295L57.3452 15.3813C57.9771 14.75 58.2905 13.8971 58.2897 12.8523H58.1677Z" fill="black"/>
<path d="M63.7898 9.79515H60.4571V12.1155H63.4626V12.9949H60.4571V15.3153H63.7898V16.2144H59.5176V8.8961H63.7898V9.79515Z" fill="black"/>
<path d="M63.7898 9.79525V9.67328H60.3351V12.2376H63.3405V12.8727L60.3351 12.8731V15.4374H63.6678V16.0925H59.6394V9.01817H63.6678V9.79525H63.7898V9.67328V9.79525H63.9117V8.8962V8.77423H59.3955V16.3364H63.9117V15.3154V15.1934H60.579V13.117H63.5845V12.1156V11.9937H60.579V9.91722H63.9117V9.79525H63.7898" fill="black"/>
<path d="M67.755 16.2144H66.814V9.79515H64.77V8.8961H69.799V9.79515H67.755V16.2144Z" fill="black"/>
<path d="M67.7549 16.2145V16.0925H66.9359V9.67328H64.8919V9.01817H69.6769V9.67328H67.6329V16.2145H67.7549V16.0925V16.2145H67.8769V9.91722H69.9209V8.8962V8.77423H64.6479V9.79525V9.91722H66.6919V16.3364H67.7549H67.8769V16.2145H67.7549" fill="black"/>
<path d="M73.438 16.2144V8.8961H74.378V16.2144H73.438Z" fill="black"/>
<path d="M73.4379 16.2145H73.5599V9.01817H74.2559V16.0925H73.4379V16.2145H73.5599H73.4379V16.3364H74.3779H74.4999V8.77423H73.4379H73.3159V16.3364H73.4379V16.2145Z" fill="black"/>
<path d="M78.5488 16.2144H77.6078V9.79515H75.564V8.8961H80.5928V9.79515H78.5488V16.2144Z" fill="black"/>
<path d="M78.5492 16.2145V16.0925H77.7302V9.67328H75.6863V9.01817H80.4712V9.67328H78.4272V16.2145H78.5492V16.0925V16.2145H78.6712V9.91722H80.7152V8.8962V8.77423H75.4424V9.79525V9.91722H77.4862V16.3364H78.5492H78.6712V16.2145H78.5492" fill="black"/>
<path d="M85.4413 14.6561C85.983 15.2044 86.6458 15.4784 87.4295 15.4784C88.2133 15.4784 88.8765 15.2044 89.4173 14.6561C89.9595 14.1077 90.2311 13.4067 90.2311 12.5554C90.2311 11.704 89.9595 11.003 89.4173 10.4547C88.8765 9.90628 88.2133 9.63233 87.4295 9.63233C86.6458 9.63233 85.983 9.90628 85.4413 10.4547C84.9005 11.003 84.629 11.704 84.629 12.5554C84.629 13.4067 84.9005 14.1077 85.4413 14.6561ZM90.1129 15.2687C89.3934 16.0086 88.4986 16.3779 87.4295 16.3779C86.3594 16.3779 85.4651 16.0086 84.7472 15.2687C84.0272 14.5297 83.6689 13.625 83.6689 12.5554C83.6689 11.4857 84.0272 10.5809 84.7472 9.842C85.4651 9.102 86.3594 8.73231 87.4295 8.73231C88.493 8.73231 89.3853 9.10395 90.1081 9.84676C90.83 10.5896 91.1911 11.4924 91.1911 12.5554C91.1911 13.625 90.8308 14.5297 90.1129 15.2687Z" fill="black"/>
<path d="M85.4412 14.6562L85.3545 14.7419C85.9163 15.3122 86.6171 15.6019 87.4295 15.6005C88.2413 15.6019 88.9431 15.3122 89.5039 14.7419C90.0694 14.1711 90.3538 13.4326 90.353 12.5555C90.3538 11.6784 90.0694 10.9398 89.5039 10.369C88.9431 9.79868 88.2413 9.509 87.4295 9.51046C86.6171 9.509 85.9163 9.79868 85.3545 10.369C84.7904 10.9398 84.5054 11.6784 84.5069 12.5555C84.5054 13.4326 84.7904 14.1711 85.3545 14.7419L85.4412 14.6562L85.5279 14.5704C85.0105 14.0439 84.7518 13.3816 84.7508 12.5555C84.7518 11.7294 85.0105 11.0671 85.5279 10.5405C86.0501 10.0141 86.6737 9.75586 87.4295 9.7544C88.1846 9.75586 88.8097 10.0141 89.3305 10.5405C89.8489 11.0671 90.1076 11.7294 90.1086 12.5555C90.1076 13.3816 89.8489 14.0439 89.3305 14.5704C88.8097 15.0968 88.1846 15.3551 87.4295 15.3565C86.6737 15.3551 86.0501 15.0968 85.5279 14.5704L85.4412 14.6562ZM90.1128 15.2688L90.0256 15.1841C89.3262 15.9006 88.471 16.2546 87.4295 16.2561C86.3875 16.2546 85.5322 15.9006 84.8342 15.1841L84.8309 15.1803L84.8342 15.1841C84.1362 14.465 83.7918 13.5979 83.7908 12.5555C83.7918 11.513 84.1362 10.6459 84.8342 9.92687C85.5322 9.21029 86.3875 8.85584 87.4295 8.85438C88.4643 8.85584 89.3176 9.21175 90.0209 9.93211C90.7212 10.6544 91.0676 11.5202 91.0691 12.5555C91.0676 13.5979 90.7222 14.465 90.0256 15.1841L90.1128 15.2688L90.2005 15.3536C90.9399 14.5942 91.3139 13.6522 91.313 12.5555C91.3139 11.4649 90.9384 10.5249 90.1956 9.76208C89.4525 8.99635 88.5215 8.6091 87.4295 8.61044C86.3317 8.6091 85.3979 8.99452 84.6594 9.75733V9.75684C83.9185 10.5167 83.5459 11.4587 83.5469 12.5555C83.5459 13.6522 83.9185 14.5942 84.6594 15.3541L84.6627 15.3575L84.6594 15.3536C85.3979 16.1164 86.3317 16.501 87.4295 16.5C88.5267 16.501 89.4605 16.1164 90.2005 15.3536L90.1128 15.2688" fill="black"/>
<path d="M92.5107 16.2144V8.8961H93.6552L97.2119 14.5892H97.2524L97.2119 13.1789V8.8961H98.1529V16.2144H97.1714L93.4503 10.2453H93.4098L93.4503 11.6562V16.2144H92.5107Z" fill="black"/>
<path d="M92.5111 16.2145H92.6331V9.01817H93.5879L97.1446 14.7113H97.2527H97.378L97.3342 13.1771V9.01817H98.0313V16.0925H97.2394L93.5184 10.1235H93.4102H93.2849L93.3287 11.6582V16.0925H92.5111V16.2145H92.6331H92.5111V16.3364H93.4507H93.5726V11.6543L93.5321 10.2422L93.4102 10.2454V10.3674H93.4507V10.2454L93.3472 10.3103L97.1041 16.3364H98.1533H98.2752V8.77423H97.2122H97.0903V13.1804L97.1308 14.5926L97.2527 14.5893V14.4673H97.2122V14.5893L97.3157 14.5245L93.7231 8.77423H92.5111H92.3892V16.3364H92.5111V16.2145Z" fill="black"/>
<path d="M130.762 36.9496H133.038V21.7018H130.762V36.9496ZM151.262 27.1944L148.653 33.8051H148.574L145.867 27.1944H143.415L147.476 36.434L145.161 41.5735H147.535L153.792 27.1944H151.262ZM138.355 35.2177C137.608 35.2177 136.569 34.8451 136.569 33.9228C136.569 32.7459 137.864 32.2947 138.981 32.2947C139.983 32.2947 140.452 32.5105 141.061 32.805C140.884 34.2172 139.668 35.2177 138.355 35.2177V35.2177ZM138.629 26.8608C136.981 26.8608 135.275 27.5869 134.569 29.1954L136.588 30.0387C137.02 29.1954 137.824 28.9205 138.668 28.9205C139.845 28.9205 141.042 29.6271 141.061 30.8825V31.0393C140.649 30.8039 139.767 30.4509 138.688 30.4509C136.51 30.4509 134.293 31.6472 134.293 33.8836C134.293 35.9238 136.079 37.2383 138.079 37.2383C139.61 37.2383 140.452 36.5517 140.983 35.7476H141.061V36.9244H143.258V31.0783C143.258 28.3716 141.238 26.8608 138.629 26.8608V26.8608ZM124.563 29.0505H121.326V23.824H124.563C126.265 23.824 127.231 25.2327 127.231 26.4372C127.231 27.6188 126.265 29.0505 124.563 29.0505ZM124.505 21.7018H119.051V36.9496H121.326V31.1727H124.505C127.027 31.1727 129.507 29.3464 129.507 26.4372C129.507 23.5281 127.027 21.7018 124.505 21.7018ZM94.767 35.2206C93.1947 35.2206 91.8783 33.9041 91.8783 32.096C91.8783 30.2689 93.1947 28.9325 94.767 28.9325C96.3194 28.9325 97.5376 30.2689 97.5376 32.096C97.5376 33.9041 96.3194 35.2206 94.767 35.2206V35.2206ZM97.3804 28.0482H97.3017C96.791 27.4392 95.8081 26.889 94.5703 26.889C91.9765 26.889 89.599 29.1682 89.599 32.096C89.599 35.0043 91.9765 37.2641 94.5703 37.2641C95.8081 37.2641 96.791 36.7137 97.3017 36.0853H97.3804V36.8319C97.3804 38.8169 96.3194 39.8779 94.6098 39.8779C93.2147 39.8779 92.3501 38.8754 91.996 38.0306L90.0116 38.8559C90.5815 40.2314 92.0947 41.9214 94.6098 41.9214C97.2822 41.9214 99.542 40.3491 99.542 36.5175V27.2034H97.3804V28.0482ZM101.114 36.9496H103.393V21.7013H101.114V36.9496ZM106.753 31.9193C106.694 29.9148 108.306 28.8933 109.465 28.8933C110.37 28.8933 111.136 29.345 111.39 29.994L106.753 31.9193ZM113.827 30.1902C113.396 29.0305 112.078 26.889 109.386 26.889C106.714 26.889 104.494 28.9915 104.494 32.0765C104.494 34.9848 106.694 37.2641 109.642 37.2641C112.02 37.2641 113.396 35.8099 113.965 34.9651L112.197 33.7859C111.608 34.6507 110.801 35.2206 109.642 35.2206C108.483 35.2206 107.657 34.6899 107.127 33.6487L114.063 30.7796L113.827 30.1902ZM58.5646 28.4807V30.6814H63.8307C63.6735 31.9193 63.2609 32.8231 62.632 33.452C61.8659 34.2186 60.6672 35.0633 58.5646 35.0633C55.3223 35.0633 52.7876 32.45 52.7876 29.2078C52.7876 25.9655 55.3223 23.3518 58.5646 23.3518C60.3136 23.3518 61.5905 24.0397 62.5338 24.924L64.0861 23.3718C62.7697 22.1139 61.0206 21.1511 58.5646 21.1511C54.1235 21.1511 50.3901 24.7668 50.3901 29.2078C50.3901 33.6487 54.1235 37.2641 58.5646 37.2641C60.9621 37.2641 62.7697 36.4784 64.1843 35.0043C65.6384 33.5502 66.0906 31.5067 66.0906 29.8563C66.0906 29.345 66.0514 28.8738 65.9724 28.4807H58.5646ZM72.0777 35.2206C70.5053 35.2206 69.1494 33.9236 69.1494 32.0765C69.1494 30.2097 70.5053 28.9325 72.0777 28.9325C73.6494 28.9325 75.0053 30.2097 75.0053 32.0765C75.0053 33.9236 73.6494 35.2206 72.0777 35.2206V35.2206ZM72.0777 26.889C69.2084 26.889 66.87 29.0701 66.87 32.0765C66.87 35.0633 69.2084 37.2641 72.0777 37.2641C74.9463 37.2641 77.2847 35.0633 77.2847 32.0765C77.2847 29.0701 74.9463 26.889 72.0777 26.889ZM83.437 35.2206C81.8653 35.2206 80.5093 33.9236 80.5093 32.0765C80.5093 30.2097 81.8653 28.9325 83.437 28.9325C85.0089 28.9325 86.3648 30.2097 86.3648 32.0765C86.3648 33.9236 85.0089 35.2206 83.437 35.2206ZM83.437 26.889C80.5679 26.889 78.23 29.0701 78.23 32.0765C78.23 35.0633 80.5679 37.2641 83.437 37.2641C86.3058 37.2641 88.6442 35.0633 88.6442 32.0765C88.6442 29.0701 86.3058 26.889 83.437 26.889Z" fill="black"/>
<path d="M13.1497 39.8638L13.0591 39.777C12.7042 39.4015 12.4946 38.8184 12.4946 38.0632V38.2409V11.2659C12.4946 11.2634 12.4946 11.2616 12.4946 11.2597C12.4946 11.262 12.4946 11.2639 12.4946 11.2664V11.4446C12.4946 10.6269 12.7389 10.0109 13.1483 9.64159L28.2602 24.7532L13.1497 39.8638ZM12.4946 11.2582C12.4946 11.191 12.4965 11.1257 12.4999 11.0615C12.4965 11.1252 12.4946 11.191 12.4946 11.2582ZM12.4999 11.0585C12.4999 11.0577 12.4999 11.0567 12.5002 11.0557C12.4999 11.0567 12.4999 11.0577 12.4999 11.0585ZM12.5002 11.05C12.5002 11.0495 12.5002 11.049 12.5002 11.0485C12.5002 11.049 12.5002 11.0495 12.5002 11.05Z" fill="url(#paint0_linear_1275_57225)"/>
<path d="M33.2968 29.9707L33.4117 29.9054L39.3796 26.5145C39.9486 26.1911 40.3278 25.7989 40.517 25.384C40.3283 25.7989 39.949 26.1916 39.3796 26.515L33.4117 29.9059L33.2968 29.9707V29.9707ZM33.2983 29.792L28.2603 24.7532L33.2978 19.7152L39.3796 23.1703C40.1519 23.6092 40.5855 24.1748 40.658 24.7527C40.658 24.7532 40.658 24.7541 40.658 24.755C40.5855 25.3315 40.1519 25.8976 39.3796 26.3363L33.2983 29.792" fill="url(#paint1_linear_1275_57225)"/>
<path d="M14.2271 40.4395C13.8049 40.4395 13.4366 40.3022 13.1493 40.043L13.1498 40.0426C13.4371 40.3017 13.8059 40.4395 14.2281 40.4395C14.2646 40.4395 14.3019 40.4385 14.3395 40.4366C14.3014 40.4385 14.2637 40.4395 14.2271 40.4395V40.4395ZM14.2276 40.2608C13.8054 40.2613 13.4371 40.1235 13.1498 39.8644V39.864L28.2603 24.7534L33.2983 29.7923L15.594 39.8516C15.1042 40.1293 14.6401 40.2608 14.2276 40.2608V40.2608ZM13.1456 40.0398C13.1189 40.0155 13.0926 39.9897 13.0669 39.963L13.1456 40.0398Z" fill="url(#paint2_linear_1275_57225)"/>
<path d="M28.2604 24.7534L13.1484 9.64184C13.4357 9.38314 13.8035 9.24592 14.2252 9.24592C14.6388 9.24592 15.1033 9.3779 15.5941 9.65611L33.2979 19.7154L28.2604 24.7534V24.7534ZM33.4118 19.6016L15.5941 9.47803C15.1033 9.1997 14.6388 9.06773 14.2252 9.06773C14.2232 9.06773 14.2219 9.06773 14.22 9.06773C14.2224 9.06773 14.2242 9.06773 14.2271 9.06773C14.6398 9.06773 15.1038 9.19921 15.5941 9.47755L33.4118 19.6016V19.6016Z" fill="url(#paint3_linear_1275_57225)"/>
<path d="M14.3394 40.4365C14.7229 40.4146 15.1475 40.2826 15.5939 40.0296L33.2967 29.9708L15.5939 40.0296C15.1478 40.2831 14.7229 40.4146 14.3394 40.4365V40.4365ZM13.1492 40.0429L13.1454 40.0396C13.1468 40.0406 13.1482 40.0419 13.1492 40.0429ZM13.0668 39.9629L13.0591 39.9553V39.9549C13.062 39.9577 13.0643 39.9605 13.0668 39.9629Z" fill="white"/>
<path d="M33.2969 29.9707L33.4118 29.9055L33.2969 29.9707Z" fill="url(#paint4_linear_1275_57225)"/>
<path d="M14.2279 40.4395C13.8058 40.4395 13.4369 40.3017 13.1497 40.0426L13.1492 40.043C13.1482 40.0421 13.1468 40.0407 13.1454 40.0398L13.0668 39.963C13.0643 39.9606 13.062 39.9578 13.0591 39.955L13.1497 39.8644C13.4369 40.1235 13.8053 40.2613 14.2274 40.2608C14.6399 40.2608 15.104 40.1293 15.5939 39.8516L33.2982 29.7922L33.4116 29.9057L33.2967 29.9709L15.5939 40.0298C15.1475 40.2827 14.7229 40.4147 14.3394 40.4366C14.3017 40.4385 14.2645 40.4395 14.2279 40.4395" fill="url(#paint5_linear_1275_57225)"/>
<path d="M13.0591 39.9556C12.7042 39.58 12.4946 38.9969 12.4946 38.2418V38.2413C12.4946 38.9969 12.7042 39.5795 13.0591 39.9551V39.9556" fill="white"/>
<path d="M13.0591 39.9551C12.7042 39.5795 12.4946 38.9969 12.4946 38.2413V38.0636C12.4946 38.8187 12.7042 39.4018 13.0591 39.7774L13.1497 39.8641L13.0591 39.9551" fill="url(#paint6_linear_1275_57225)"/>
<path d="M13.0591 39.9551L13.1497 39.8641V39.8645L13.0591 39.9551" fill="url(#paint7_linear_1275_57225)"/>
<path d="M40.5171 25.3843C40.6109 25.1784 40.6581 24.9669 40.6581 24.7553C40.6581 24.7549 40.6581 24.7544 40.6581 24.7544C40.6581 24.9664 40.6109 25.1779 40.5171 25.3843Z" fill="white"/>
<path d="M33.4118 29.9058L33.2983 29.7923L39.3797 26.3366C40.152 25.8979 40.5856 25.3319 40.6581 24.7553C40.6581 24.9669 40.6109 25.1784 40.5171 25.3843C40.3279 25.7992 39.9487 26.1914 39.3797 26.5148L33.4118 29.9058Z" fill="url(#paint8_linear_1275_57225)"/>
<path d="M40.6579 24.7534V24.7529C40.6574 24.1149 40.231 23.477 39.3795 22.9929L33.4116 19.602H33.4111L33.4116 19.6016L39.3795 22.9924C40.232 23.4765 40.6589 24.1154 40.6579 24.7534Z" fill="#404040"/>
<path d="M40.6581 24.7529C40.5856 24.175 40.152 23.6095 39.3797 23.1706L33.2979 19.7154L33.4113 19.602H33.4118L39.3797 22.9929C40.2312 23.477 40.6576 24.1149 40.6581 24.7529Z" fill="url(#paint9_linear_1275_57225)"/>
<path d="M12.4946 11.2598C12.4946 11.2593 12.4946 11.2588 12.4946 11.2583C12.4946 11.2588 12.4946 11.2593 12.4946 11.2598ZM12.4999 11.0616C12.4999 11.0606 12.4999 11.0596 12.4999 11.0586C12.4999 11.0596 12.4999 11.0606 12.4999 11.0616ZM12.5002 11.0558C12.5002 11.0539 12.5002 11.0521 12.5002 11.0501C12.5002 11.0521 12.5002 11.0539 12.5002 11.0558ZM12.5002 11.0486C12.5709 9.79563 13.2522 9.07186 14.216 9.06759C13.7981 9.07003 13.4342 9.20724 13.1492 9.46399V9.4635L13.1458 9.46692C13.1158 9.49399 13.0873 9.52266 13.0591 9.55218C12.7389 9.89089 12.537 10.3983 12.5002 11.0486Z" fill="#404040"/>
<path d="M12.4946 11.4448V11.2666C12.4946 11.2642 12.4946 11.2622 12.4946 11.2599C12.4946 11.2594 12.4946 11.2589 12.4946 11.2585C12.4946 11.1912 12.4965 11.1255 12.4999 11.0617C12.4999 11.0607 12.4999 11.0598 12.4999 11.0588C12.4999 11.0579 12.4999 11.057 12.5002 11.056C12.5002 11.054 12.5002 11.0522 12.5002 11.0502C12.5002 11.0498 12.5002 11.0493 12.5002 11.0488C12.537 10.3984 12.7389 9.89104 13.0591 9.55232L13.1483 9.64185C12.7389 10.0112 12.4946 10.6271 12.4946 11.4448V11.4448ZM13.1458 9.46706L13.1492 9.46365C13.1483 9.46511 13.1468 9.46609 13.1458 9.46706Z" fill="url(#paint10_linear_1275_57225)"/>
<path d="M33.2977 19.7153L15.5939 9.65603C15.1031 9.37781 14.6386 9.24584 14.225 9.24584C13.8033 9.24584 13.4355 9.38306 13.1482 9.64176L13.0591 9.55223C13.0873 9.52271 13.1158 9.49405 13.1458 9.46697C13.1468 9.466 13.1482 9.46502 13.1492 9.46405C13.4341 9.2073 13.7981 9.07008 14.216 9.06764C14.217 9.06764 14.2183 9.06764 14.2198 9.06764C14.2217 9.06764 14.2231 9.06764 14.225 9.06764C14.6386 9.06764 15.1031 9.19961 15.5939 9.47795L33.4116 19.6015L33.4111 19.6019L33.2977 19.7153Z" fill="url(#paint11_linear_1275_57225)"/>
</g>
<defs>
<linearGradient id="paint0_linear_1275_57225" x1="26.9202" y1="10.9813" x2="6.45049" y2="31.4511" gradientUnits="userSpaceOnUse">
<stop stop-color="#00A0FF"/>
<stop offset="0.00657445" stop-color="#00A1FF"/>
<stop offset="0.2601" stop-color="#00BEFF"/>
<stop offset="0.5122" stop-color="#00D2FF"/>
<stop offset="0.7604" stop-color="#00DFFF"/>
<stop offset="1" stop-color="#00E3FF"/>
</linearGradient>
<linearGradient id="paint1_linear_1275_57225" x1="41.599" y1="24.7539" x2="12.0857" y2="24.7539" gradientUnits="userSpaceOnUse">
<stop stop-color="#FFE000"/>
<stop offset="0.4087" stop-color="#FFBD00"/>
<stop offset="0.7754" stop-color="#FFA500"/>
<stop offset="1" stop-color="#FF9C00"/>
</linearGradient>
<linearGradient id="paint2_linear_1275_57225" x1="30.6126" y1="27.553" x2="2.85415" y2="55.3115" gradientUnits="userSpaceOnUse">
<stop stop-color="#FF3A44"/>
<stop offset="1" stop-color="#C31162"/>
</linearGradient>
<linearGradient id="paint3_linear_1275_57225" x1="9.23159" y1="0.573187" x2="21.6269" y2="12.9685" gradientUnits="userSpaceOnUse">
<stop stop-color="#32A071"/>
<stop offset="0.0685" stop-color="#2DA771"/>
<stop offset="0.4762" stop-color="#15CF74"/>
<stop offset="0.8009" stop-color="#06E775"/>
<stop offset="1" stop-color="#00F076"/>
</linearGradient>
<linearGradient id="paint4_linear_1275_57225" x1="41.5988" y1="24.7541" x2="12.0864" y2="24.7541" gradientUnits="userSpaceOnUse">
<stop stop-color="#CCB300"/>
<stop offset="0.4087" stop-color="#CC9700"/>
<stop offset="0.7754" stop-color="#CC8400"/>
<stop offset="1" stop-color="#CC7D00"/>
</linearGradient>
<linearGradient id="paint5_linear_1275_57225" x1="30.6125" y1="27.553" x2="2.85402" y2="55.3115" gradientUnits="userSpaceOnUse">
<stop stop-color="#CC2E36"/>
<stop offset="1" stop-color="#9C0E4E"/>
</linearGradient>
<linearGradient id="paint6_linear_1275_57225" x1="26.9203" y1="10.9816" x2="6.45052" y2="31.4514" gradientUnits="userSpaceOnUse">
<stop stop-color="#008DE0"/>
<stop offset="0.00657445" stop-color="#008DE0"/>
<stop offset="0.2601" stop-color="#00A7E0"/>
<stop offset="0.5122" stop-color="#00B8E0"/>
<stop offset="0.7604" stop-color="#00C4E0"/>
<stop offset="1" stop-color="#00C7E0"/>
</linearGradient>
<linearGradient id="paint7_linear_1275_57225" x1="30.6131" y1="27.5532" x2="2.85493" y2="55.3126" gradientUnits="userSpaceOnUse">
<stop stop-color="#E0333C"/>
<stop offset="1" stop-color="#AB0F56"/>
</linearGradient>
<linearGradient id="paint8_linear_1275_57225" x1="41.5991" y1="24.7542" x2="12.0858" y2="24.7542" gradientUnits="userSpaceOnUse">
<stop stop-color="#E0C500"/>
<stop offset="0.4087" stop-color="#E0A600"/>
<stop offset="0.7754" stop-color="#E09100"/>
<stop offset="1" stop-color="#E08900"/>
</linearGradient>
<linearGradient id="paint9_linear_1275_57225" x1="41.5991" y1="24.7541" x2="12.0858" y2="24.7541" gradientUnits="userSpaceOnUse">
<stop stop-color="#FFE840"/>
<stop offset="0.4087" stop-color="#FFCE40"/>
<stop offset="0.7754" stop-color="#FFBC40"/>
<stop offset="1" stop-color="#FFB540"/>
</linearGradient>
<linearGradient id="paint10_linear_1275_57225" x1="26.9203" y1="10.9816" x2="6.45049" y2="31.4513" gradientUnits="userSpaceOnUse">
<stop stop-color="#40B8FF"/>
<stop offset="0.00657445" stop-color="#40B9FF"/>
<stop offset="0.2601" stop-color="#40CEFF"/>
<stop offset="0.5122" stop-color="#40DDFF"/>
<stop offset="0.7604" stop-color="#40E7FF"/>
<stop offset="1" stop-color="#40EAFF"/>
</linearGradient>
<linearGradient id="paint11_linear_1275_57225" x1="9.23139" y1="0.573103" x2="21.6267" y2="12.9684" gradientUnits="userSpaceOnUse">
<stop stop-color="#65B895"/>
<stop offset="0.0685" stop-color="#62BD95"/>
<stop offset="0.4762" stop-color="#50DB97"/>
<stop offset="0.8009" stop-color="#44ED98"/>
<stop offset="1" stop-color="#40F498"/>
</linearGradient>
<clipPath id="clip0_1275_57225">
<rect width="165.027" height="49.0323" fill="white" transform="translate(0.208984 0.236328)"/>
</clipPath>
</defs>
</svg>
