<svg width="21" height="22" viewBox="0 0 21 22" fill="none" xmlns="http://www.w3.org/2000/svg">
<g clip-path="url(#clip0_1069_61150)">
<path d="M10.3898 2.66323C13.1068 2.66323 13.4257 2.67534 14.4996 2.72379C15.4928 2.7682 16.0297 2.93372 16.389 3.07502C16.8654 3.26073 17.2045 3.47873 17.5598 3.834C17.915 4.18926 18.1371 4.52838 18.3187 5.00476C18.456 5.36406 18.6256 5.901 18.67 6.89413C18.7184 7.968 18.7305 8.28693 18.7305 11.0039C18.7305 13.7209 18.7184 14.0398 18.67 15.1137C18.6256 16.1068 18.46 16.6438 18.3187 17.0031C18.133 17.4794 17.915 17.8186 17.5598 18.1738C17.2045 18.5291 16.8654 18.7511 16.389 18.9328C16.0297 19.0701 15.4928 19.2396 14.4996 19.284C13.4257 19.3325 13.1068 19.3446 10.3898 19.3446C7.67285 19.3446 7.35392 19.3325 6.28005 19.284C5.28692 19.2396 4.74998 19.0741 4.39068 18.9328C3.9143 18.7471 3.57518 18.5291 3.21992 18.1738C2.86465 17.8186 2.64261 17.4794 2.46094 17.0031C2.32367 16.6438 2.15412 16.1068 2.10971 15.1137C2.06126 14.0398 2.04915 13.7209 2.04915 11.0039C2.04915 8.28693 2.06126 7.968 2.10971 6.89413C2.15412 5.901 2.31964 5.36406 2.46094 5.00476C2.64664 4.52838 2.86465 4.18926 3.21992 3.834C3.57518 3.47873 3.9143 3.25669 4.39068 3.07502C4.74998 2.93776 5.28692 2.7682 6.28005 2.72379C7.35392 2.67131 7.67689 2.66323 10.3898 2.66323ZM10.3898 0.830383C7.62845 0.830383 7.28125 0.842495 6.19527 0.89094C5.11332 0.939385 4.37453 1.11298 3.72859 1.36328C3.05843 1.62166 2.49323 1.97289 1.92804 2.53808C1.36284 3.10328 1.01565 3.67251 0.753236 4.33864C0.502935 4.98457 0.329339 5.72337 0.280894 6.80935C0.232448 7.8913 0.220337 8.23849 0.220337 10.9999C0.220337 13.7613 0.232448 14.1085 0.280894 15.1944C0.329339 16.2764 0.502935 17.0152 0.753236 17.6651C1.01161 18.3353 1.36284 18.9005 1.92804 19.4657C2.49323 20.0309 3.06247 20.3781 3.72859 20.6405C4.37453 20.8908 5.11332 21.0644 6.19931 21.1128C7.28529 21.1613 7.62845 21.1734 10.3939 21.1734C13.1593 21.1734 13.5025 21.1613 14.5884 21.1128C15.6704 21.0644 16.4092 20.8908 17.0592 20.6405C17.7293 20.3821 18.2945 20.0309 18.8597 19.4657C19.4249 18.9005 19.7721 18.3313 20.0345 17.6651C20.2848 17.0192 20.4584 16.2804 20.5068 15.1944C20.5553 14.1085 20.5674 13.7653 20.5674 10.9999C20.5674 8.23445 20.5553 7.8913 20.5068 6.80531C20.4584 5.72337 20.2848 4.98457 20.0345 4.3346C19.7761 3.66444 19.4249 3.09924 18.8597 2.53405C18.2945 1.96885 17.7253 1.62166 17.0592 1.35925C16.4132 1.10894 15.6744 0.935348 14.5884 0.886903C13.4984 0.842495 13.1512 0.830383 10.3898 0.830383Z" fill="black"/>
<path d="M10.3898 2.66323C13.1068 2.66323 13.4257 2.67534 14.4996 2.72379C15.4928 2.7682 16.0297 2.93372 16.389 3.07502C16.8654 3.26073 17.2045 3.47873 17.5598 3.834C17.915 4.18926 18.1371 4.52838 18.3187 5.00476C18.456 5.36406 18.6256 5.901 18.67 6.89413C18.7184 7.968 18.7305 8.28693 18.7305 11.0039C18.7305 13.7209 18.7184 14.0398 18.67 15.1137C18.6256 16.1068 18.46 16.6438 18.3187 17.0031C18.133 17.4794 17.915 17.8186 17.5598 18.1738C17.2045 18.5291 16.8654 18.7511 16.389 18.9328C16.0297 19.0701 15.4928 19.2396 14.4996 19.284C13.4257 19.3325 13.1068 19.3446 10.3898 19.3446C7.67285 19.3446 7.35392 19.3325 6.28005 19.284C5.28692 19.2396 4.74998 19.0741 4.39068 18.9328C3.9143 18.7471 3.57518 18.5291 3.21992 18.1738C2.86465 17.8186 2.64261 17.4794 2.46094 17.0031C2.32367 16.6438 2.15412 16.1068 2.10971 15.1137C2.06126 14.0398 2.04915 13.7209 2.04915 11.0039C2.04915 8.28693 2.06126 7.968 2.10971 6.89413C2.15412 5.901 2.31964 5.36406 2.46094 5.00476C2.64664 4.52838 2.86465 4.18926 3.21992 3.834C3.57518 3.47873 3.9143 3.25669 4.39068 3.07502C4.74998 2.93776 5.28692 2.7682 6.28005 2.72379C7.35392 2.67131 7.67689 2.66323 10.3898 2.66323Z" fill="black"/>
<path d="M10.3898 5.77989C7.5073 5.77989 5.16577 8.11738 5.16577 11.0039C5.16577 13.8905 7.50326 16.2279 10.3898 16.2279C13.2763 16.2279 15.6138 13.8905 15.6138 11.0039C15.6138 8.11738 13.2763 5.77989 10.3898 5.77989ZM10.3898 14.3911C8.51658 14.3911 6.99862 12.8731 6.99862 10.9999C6.99862 9.12666 8.51658 7.6087 10.3898 7.6087C12.263 7.6087 13.781 9.12666 13.781 10.9999C13.781 12.8731 12.263 14.3911 10.3898 14.3911Z" fill="white"/>
<path d="M15.8198 6.78917C16.4931 6.78917 17.039 6.24331 17.039 5.56996C17.039 4.89661 16.4931 4.35075 15.8198 4.35075C15.1464 4.35075 14.6006 4.89661 14.6006 5.56996C14.6006 6.24331 15.1464 6.78917 15.8198 6.78917Z" fill="white"/>
</g>
<defs>
<clipPath id="clip0_1069_61150">
<rect width="20.339" height="20.339" fill="white" transform="translate(0.220337 0.830383)"/>
</clipPath>
</defs>
</svg>
