<svg width="22" height="22" viewBox="0 0 22 22" fill="none" xmlns="http://www.w3.org/2000/svg">
<g clip-path="url(#clip0_1069_61151)">
<path d="M19.6681 0.830383H2.33198C1.93378 0.830383 1.55189 0.988568 1.27032 1.27014C0.988751 1.55171 0.830566 1.9336 0.830566 2.3318V19.668C0.830566 20.0662 0.988751 20.448 1.27032 20.7296C1.55189 21.0112 1.93378 21.1694 2.33198 21.1694H19.6681C20.0663 21.1694 20.4482 21.0112 20.7298 20.7296C21.0114 20.448 21.1695 20.0662 21.1695 19.668V2.3318C21.1695 1.9336 21.0114 1.55171 20.7298 1.27014C20.4482 0.988568 20.0663 0.830383 19.6681 0.830383ZM6.89271 18.1567H3.8348V8.44338H6.89271V18.1567ZM5.36164 7.09733C5.01477 7.09538 4.67626 6.99072 4.38882 6.79656C4.10137 6.6024 3.87789 6.32744 3.74656 6.00639C3.61524 5.68534 3.58196 5.33258 3.65093 4.99263C3.7199 4.65269 3.88803 4.34079 4.13409 4.0963C4.38015 3.85181 4.69312 3.68569 5.0335 3.61891C5.37389 3.55212 5.72642 3.58767 6.04663 3.72105C6.36683 3.85443 6.64035 4.07968 6.83266 4.36836C7.02497 4.65704 7.12745 4.99622 7.12718 5.3431C7.13045 5.57533 7.08693 5.80584 6.99922 6.0209C6.91151 6.23595 6.7814 6.43115 6.61664 6.59485C6.45189 6.75855 6.25586 6.8874 6.04025 6.97373C5.82463 7.06006 5.59385 7.1021 5.36164 7.09733ZM18.1639 18.1651H15.1074V12.8586C15.1074 11.2937 14.4421 10.8106 13.5834 10.8106C12.6766 10.8106 11.7868 11.4942 11.7868 12.8982V18.1651H8.72887V8.45044H11.6695V9.79648H11.7091C12.0043 9.19903 13.0382 8.17784 14.6159 8.17784C16.3221 8.17784 18.1653 9.19055 18.1653 12.1567L18.1639 18.1651Z" fill="black"/>
</g>
<defs>
<clipPath id="clip0_1069_61151">
<rect width="20.339" height="20.339" fill="white" transform="translate(0.830566 0.830383)"/>
</clipPath>
</defs>
</svg>
