<svg width="21" height="22" viewBox="0 0 21 22" fill="none" xmlns="http://www.w3.org/2000/svg">
<g clip-path="url(#clip0_1069_61154)">
<path d="M15.2713 0.830383H11.7599V14.6844C11.7599 16.3352 10.4095 17.6911 8.72884 17.6911C7.0482 17.6911 5.69771 16.3352 5.69771 14.6844C5.69771 13.0633 7.0182 11.7368 8.63882 11.6778V8.19959C5.06747 8.25852 2.1864 11.1178 2.1864 14.6844C2.1864 18.2807 5.12749 21.1694 8.75886 21.1694C12.3902 21.1694 15.3313 18.2512 15.3313 14.6844V7.58055C16.6518 8.52383 18.2724 9.08389 19.983 9.11338V5.6351C17.342 5.54667 15.2713 3.42434 15.2713 0.830383Z" fill="black"/>
</g>
<defs>
<clipPath id="clip0_1069_61154">
<rect width="20.339" height="20.339" fill="white" transform="translate(0.661011 0.830383)"/>
</clipPath>
</defs>
</svg>
