<svg width="20" height="18" viewBox="0 0 20 18" fill="none" xmlns="http://www.w3.org/2000/svg">
<path d="M17.455 4.91577C17.4628 5.09476 17.4628 5.26561 17.4628 5.44459C17.4707 10.871 13.4839 17.1355 6.19296 17.1355C4.04258 17.1355 1.93144 16.4928 0.11853 15.2887C0.432454 15.3294 0.746379 15.3456 1.0603 15.3456C2.84182 15.3456 4.57625 14.7273 5.98106 13.5802C4.28587 13.5477 2.79473 12.4005 2.27676 10.7246C2.87321 10.8466 3.48537 10.8222 4.06613 10.6514C2.22182 10.2771 0.895493 8.59307 0.887644 6.63239C0.887644 6.61612 0.887644 6.59985 0.887644 6.58358C1.43701 6.90087 2.05701 7.07985 2.68486 7.09612C0.950429 5.89205 0.40891 3.49204 1.46056 1.61271C3.47752 4.18357 6.4441 5.73747 9.63043 5.90832C9.30866 4.48459 9.74815 2.98763 10.7763 1.97882C12.3694 0.424913 14.8808 0.506269 16.3877 2.1578C17.2745 1.97882 18.1299 1.63712 18.9069 1.15712C18.6087 2.10899 17.9887 2.91441 17.1646 3.42696C17.9494 3.32933 18.7185 3.10967 19.4406 2.78424C18.9069 3.61408 18.232 4.33001 17.455 4.91577Z" fill="black"/>
</svg>
