<svg width="21" height="22" viewBox="0 0 21 22" fill="none" xmlns="http://www.w3.org/2000/svg">
<g clip-path="url(#clip0_1069_61152)">
<path d="M20.3607 6.10946C20.1262 5.23827 19.4393 4.55137 18.5681 4.31682C16.9765 3.88123 10.6101 3.88123 10.6101 3.88123C10.6101 3.88123 4.24375 3.88123 2.65215 4.30007C1.79772 4.53462 1.09407 5.23827 0.859514 6.10946C0.440674 7.70105 0.440674 11.0015 0.440674 11.0015C0.440674 11.0015 0.440674 14.3187 0.859514 15.8936C1.09407 16.7648 1.78096 17.4517 2.65215 17.6862C4.2605 18.1218 10.6101 18.1218 10.6101 18.1218C10.6101 18.1218 16.9765 18.1218 18.5681 17.703C19.4393 17.4684 20.1262 16.7815 20.3607 15.9103C20.7796 14.3187 20.7796 11.0183 20.7796 11.0183C20.7796 11.0183 20.7963 7.70105 20.3607 6.10946Z" fill="black"/>
<path d="M8.58301 14.0514L13.8772 11.0022L8.58301 7.95306V14.0514Z" fill="white"/>
</g>
<defs>
<clipPath id="clip0_1069_61152">
<rect width="20.339" height="20.339" fill="white" transform="translate(0.440674 0.830383)"/>
</clipPath>
</defs>
</svg>
